<svg xmlns="http://www.w3.org/2000/svg" width="1024" height="1024" viewBox="0 0 1024 1024">
<g>
<path d="M 631.58 737.64 C633.18,736.51 633.18,736.00 631.75,736.00 C629.56,736.00 625.59,721.55 625.88,714.66 C626.08,710.10 625.76,708.54 624.42,707.56 C621.71,705.58 623.35,701.40 627.77,699.00 C650.85,686.52 676.74,667.12 694.05,649.34 C708.14,634.86 712.06,630.02 723.26,613.30 C739.78,588.62 749.02,568.08 758.25,535.50 C759.75,530.21 760.70,525.33 761.18,519.43 C761.11,540.66 759.76,551.97 755.34,571.49 C740.71,636.15 701.56,692.39 645.50,729.27 C641.38,731.98 636.63,734.83 631.58,737.64 ZM 562.38 494.03 L 562.50 454.50 L 581.75 454.23 L 601.00 453.96 L 601.00 625.00 L 600.97 553.75 C600.94,490.88 600.76,482.73 599.47,484.44 C598.66,485.51 598.00,487.00 598.00,487.75 C598.00,488.50 597.55,488.84 597.00,488.50 C596.45,488.16 595.96,488.47 595.92,489.19 C595.87,490.09 595.69,490.13 595.36,489.33 C595.02,488.50 593.62,488.72 590.49,490.11 C581.55,494.06 571.65,492.84 566.60,487.15 C565.49,485.91 564.66,484.88 564.02,484.99 C563.16,485.14 562.66,487.39 562.38,494.03 ZM 509.40 522.16 L 509.50 498.50 L 528.76 498.23 L 548.01 497.96 L 547.90 526.27 L 541.76 525.49 C531.81,524.23 526.55,524.11 525.91,525.15 C524.53,527.38 518.12,527.03 513.54,524.47 L 509.40 522.16 ZM 455.72 584.28 C455.26,561.45 455.08,536.94 455.63,535.52 C456.12,534.23 459.10,534.00 475.11,534.00 L 494.00 534.00 L 493.97 536.75 C493.95,538.26 494.15,558.47 494.41,581.66 C494.50,588.86 494.56,594.85 494.59,599.84 C494.54,595.81 494.46,591.16 494.37,585.81 L 493.68 548.26 L 490.59 548.57 C484.89,549.14 469.52,550.22 467.77,550.17 C466.82,550.15 465.78,550.55 465.46,551.06 C464.62,552.43 460.23,552.21 459.30,550.75 C458.86,550.06 457.77,548.93 456.87,548.23 C455.38,547.06 455.28,549.90 455.72,584.28 ZM 441.00 577.00 L 438.50 577.00 C437.12,577.00 436.00,576.61 436.00,576.13 C436.00,573.54 420.43,571.88 415.50,573.94 C407.92,577.12 405.32,577.76 403.68,576.84 C402.22,576.02 402.02,577.48 402.00,595.75 C402.00,594.95 402.00,594.14 402.00,593.30 L 402.00 564.00 L 441.00 564.00 L 441.00 577.00 ZM 572.32 367.45 L 571.33 369.34 C570.60,370.73 569.07,372.16 567.91,372.53 C566.15,373.09 566.30,373.58 570.28,377.16 C564.70,372.61 559.37,370.82 551.85,370.82 C542.90,370.82 535.30,374.43 530.24,380.41 L 531.74 378.18 L 528.91 376.09 C524.81,373.06 523.56,373.45 520.19,378.75 C517.62,382.79 515.87,387.15 514.93,391.61 C520.00,366.14 549.51,353.25 572.32,367.45 ZM 764.39 479.83 L 765.00 479.72 C767.47,479.24 770.06,478.12 770.75,477.23 C772.51,474.95 772.38,463.52 770.57,461.71 C768.28,459.43 765.91,449.04 767.14,446.73 C767.77,445.56 767.76,444.75 766.89,443.51 C776.52,454.53 784.58,463.83 785.77,465.38 C787.00,466.97 788.00,469.26 788.00,470.48 C788.00,474.63 784.54,476.38 772.18,478.50 L 764.39 479.83 ZM 761.91 437.82 C758.08,433.49 751.95,426.54 745.52,419.23 C735.59,407.94 728.28,400.31 725.87,398.67 C727.28,399.35 728.78,400.55 730.42,402.27 C733.16,405.14 748.18,422.15 761.91,437.82 ZM 527.33 414.29 C522.90,406.74 521.86,397.19 525.61,388.31 C524.31,391.70 523.61,395.46 523.61,399.50 C523.61,405.05 524.97,410.06 527.33,414.29 ZM 581.27 759.46 C591.28,756.34 601.09,752.63 610.53,748.39 C604.18,751.34 598.06,753.90 592.80,755.77 C589.38,756.98 585.46,758.23 581.27,759.46 ZM 457.28 623.80 C458.18,624.45 465.74,624.87 473.75,625.00 C462.70,624.98 458.13,624.64 457.28,623.80 ZM 576.40 383.67 C579.77,388.37 581.28,393.54 581.18,399.73 C581.09,405.04 579.65,409.95 577.18,414.15 C582.57,404.88 582.65,392.84 576.40,383.67 ZM 691.24 464.15 C688.07,471.71 685.49,478.01 684.23,481.25 C685.29,478.03 687.49,472.90 691.24,464.15 ZM 562.46 623.75 C562.36,623.48 562.28,617.19 562.23,606.79 C562.33,616.13 562.46,622.35 562.60,623.94 C562.53,623.88 562.49,623.82 562.46,623.75 ZM 515.11 408.37 C516.60,414.76 519.74,420.81 524.47,425.86 C519.59,420.65 516.53,414.96 515.11,408.37 ZM 509.47 623.77 C509.36,623.49 509.28,618.75 509.23,610.97 C509.33,617.93 509.47,622.64 509.61,623.97 C509.54,623.91 509.49,623.84 509.47,623.77 ZM 724.80 398.24 C722.16,397.67 720.46,398.19 718.38,401.38 C719.03,400.16 719.49,399.41 719.71,399.25 C721.34,398.03 722.99,397.69 724.80,398.24 ZM 586.06 381.66 C584.24,378.18 581.66,375.06 578.12,371.83 L 577.36 371.13 C577.90,371.59 578.43,372.06 578.96,372.56 C582.04,375.44 584.37,378.37 586.06,381.66 ZM 513.49 624.70 C516.64,624.81 521.47,624.85 526.89,624.80 C520.43,624.88 516.18,624.86 513.49,624.70 ZM 513.03 770.37 C524.54,770.07 535.82,769.40 542.00,768.48 C543.22,768.30 544.45,768.11 545.67,767.90 C544.39,768.12 543.17,768.32 542.00,768.49 C535.80,769.40 524.53,770.07 513.03,770.37 ZM 760.83 487.10 L 760.50 480.58 L 760.50 480.58 L 760.74 484.50 C760.77,484.95 760.80,485.85 760.83,487.10 ZM 490.78 624.68 C492.18,624.56 493.18,624.42 493.63,624.23 C493.55,624.32 493.46,624.38 493.37,624.41 C493.11,624.51 492.20,624.60 490.78,624.68 ZM 710.56 418.42 C709.35,421.30 707.90,424.75 706.31,428.51 C707.04,426.78 707.74,425.09 708.41,423.50 C709.14,421.77 709.86,420.07 710.56,418.42 ZM 683.56 486.03 C683.87,486.78 684.46,487.55 685.36,488.45 C684.64,487.73 684.09,487.19 683.76,486.53 C683.68,486.37 683.61,486.21 683.56,486.03 Z" fill="rgba(8,220,218,1)"/>
<path d="M 566.90 763.50 L 564.64 761.10 C563.22,759.58 561.91,756.62 561.49,754.00 C561.09,751.53 559.98,747.41 559.02,744.85 C557.95,742.02 557.60,739.66 558.12,738.85 C558.59,738.11 558.98,736.05 558.98,734.29 C559.00,732.06 559.64,730.73 561.08,729.96 C563.35,728.74 566.06,723.31 565.33,721.43 C565.08,720.77 566.13,719.93 567.68,719.54 C569.22,719.16 570.71,718.49 570.99,718.05 C571.27,717.62 577.43,715.62 584.68,713.62 C600.46,709.24 607.22,706.76 624.97,698.82 C634.52,694.55 642.41,690.37 650.66,685.00 C642.99,690.20 635.23,694.97 627.77,699.00 C623.35,701.40 621.71,705.58 624.42,707.56 C625.76,708.54 626.08,710.10 625.88,714.66 C625.59,721.55 629.56,736.00 631.75,736.00 C635.07,736.00 630.69,738.76 616.61,745.56 C600.93,753.12 584.09,759.19 566.90,763.50 ZM 562.02 570.59 C562.01,565.36 562.00,559.92 562.00,554.33 C562.00,497.81 561.94,485.36 564.02,484.99 C564.66,484.88 565.49,485.91 566.60,487.15 C571.65,492.84 581.55,494.06 590.49,490.11 C593.62,488.72 595.02,488.50 595.36,489.33 C595.69,490.13 595.87,490.09 595.92,489.19 C595.96,488.47 596.45,488.16 597.00,488.50 C597.55,488.84 598.00,488.50 598.00,487.75 C598.00,487.00 598.66,485.51 599.47,484.44 C600.76,482.73 600.94,490.88 600.97,553.75 L 601.00 625.00 L 600.96 572.75 C600.92,522.09 600.86,520.60 599.14,523.83 C597.52,526.88 596.90,527.20 591.93,527.57 C583.49,528.19 571.94,528.10 567.11,527.38 C564.11,526.94 562.92,527.07 563.37,527.80 C563.74,528.38 563.58,529.14 563.02,529.49 C562.50,529.81 562.14,549.34 562.02,570.59 ZM 547.88 552.00 L 537.76 551.85 C532.12,551.78 523.34,551.59 518.25,551.43 L 509.00 551.16 L 509.00 521.94 L 513.54 524.47 C518.12,527.03 524.53,527.38 525.91,525.15 C526.55,524.11 531.81,524.23 541.76,525.49 L 548.02 526.29 L 547.88 552.00 ZM 455.82 591.76 C455.79,589.51 455.75,587.17 455.72,584.73 C455.28,549.93 455.37,547.06 456.87,548.23 C457.77,548.93 458.86,550.06 459.30,550.75 C460.23,552.21 464.62,552.43 465.46,551.06 C465.78,550.55 466.82,550.15 467.77,550.17 C469.52,550.22 484.89,549.14 490.59,548.57 L 493.68 548.26 L 494.37 585.81 C494.46,590.97 494.54,595.47 494.59,599.39 C494.56,598.50 494.54,597.57 494.51,596.61 C494.11,581.98 493.71,570.00 493.64,570.00 C493.56,570.00 490.43,570.64 486.68,571.43 C478.95,573.04 471.73,572.68 465.96,570.37 C463.78,569.50 461.38,569.02 460.62,569.31 C459.86,569.61 458.75,569.35 458.14,568.74 C457.53,568.13 456.73,567.94 456.35,568.31 C455.83,568.83 455.70,579.75 455.82,591.76 ZM 761.52 504.65 C761.50,504.20 761.47,503.75 761.45,503.29 C760.98,494.61 760.58,485.82 760.55,483.77 C760.51,480.67 760.04,479.84 757.77,478.91 C755.83,478.10 754.87,476.82 754.42,474.42 C753.92,471.75 754.41,449.90 755.07,445.50 C755.16,444.95 754.98,440.99 754.69,436.69 L 754.17 429.06 C760.20,435.89 764.84,441.14 765.76,442.15 C767.69,444.26 767.97,445.19 767.14,446.73 C765.91,449.04 768.28,459.43 770.57,461.71 C772.38,463.52 772.51,474.95 770.75,477.23 C770.06,478.12 767.47,479.24 765.00,479.72 L 760.50 480.58 L 761.00 490.54 C761.27,495.90 761.45,500.54 761.52,504.65 ZM 441.00 585.07 L 437.31 587.24 C432.26,590.23 411.02,591.16 405.94,588.62 C404.15,587.73 402.54,587.00 402.35,587.00 C402.17,587.00 402.03,593.63 402.00,602.20 C402.00,601.25 402.00,600.27 402.00,599.25 C402.00,577.67 402.13,575.97 403.68,576.84 C405.32,577.76 407.92,577.12 415.50,573.94 C420.43,571.88 436.00,573.54 436.00,576.13 C436.00,576.61 437.12,577.00 438.50,577.00 L 441.00 577.00 L 441.00 585.07 ZM 523.53 403.09 C523.51,402.97 523.49,402.85 523.47,402.72 C522.89,398.76 522.52,398.15 521.35,399.12 C520.28,400.01 519.33,400.01 517.42,399.15 C516.04,398.52 514.64,398.00 514.31,398.00 C514.20,398.00 514.13,398.29 514.10,398.80 C514.24,391.88 516.25,384.94 520.19,378.75 C523.56,373.45 524.81,373.06 528.91,376.09 L 531.74 378.18 L 528.44 383.09 C524.16,389.45 522.72,396.50 523.53,403.09 ZM 326.00 378.27 L 321.00 373.60 C315.53,368.48 315.33,367.76 317.48,360.68 C319.55,353.89 317.83,354.66 309.26,364.63 C313.18,359.86 316.29,356.47 317.25,356.12 C317.68,355.96 318.81,354.96 320.03,353.69 C319.42,354.47 319.20,354.98 319.52,354.97 C320.75,354.93 324.36,351.75 325.38,350.11 C325.74,353.16 326.00,362.15 326.00,373.08 L 326.00 378.27 ZM 582.99 376.97 C581.89,375.98 580.75,375.52 579.63,375.73 C578.25,375.99 576.35,377.06 575.40,378.11 C573.82,379.85 573.82,380.14 575.31,381.79 C576.81,383.45 578.13,385.82 579.14,388.49 C577.53,384.73 574.94,381.32 571.26,378.05 C566.34,373.66 566.02,373.13 567.91,372.53 C569.07,372.16 570.60,370.73 571.33,369.34 L 572.65 366.83 L 578.12 371.83 C580.01,373.55 581.62,375.24 582.99,376.97 ZM 741.29 582.09 C749.20,564.95 757.03,542.45 759.04,530.47 C759.57,527.32 760.34,523.97 760.91,522.20 C760.38,526.91 759.51,531.06 758.25,535.50 C753.04,553.90 747.82,568.46 741.29,582.09 ZM 257.20 468.09 C253.13,486.49 251.23,505.44 251.52,524.49 C251.20,509.60 252.19,494.94 254.59,481.06 C255.34,476.71 256.21,472.39 257.20,468.09 ZM 522.46 770.04 C533.80,769.31 545.01,768.03 554.48,766.30 C550.32,767.13 546.16,767.86 542.00,768.48 C537.53,769.14 530.41,769.68 522.46,770.04 ZM 293.80 385.02 C286.38,396.02 279.42,408.13 273.75,419.92 C278.95,408.76 285.00,398.04 291.83,387.89 C292.46,386.96 293.12,386.00 293.80,385.02 ZM 262.31 593.61 C266.18,606.06 271.99,621.00 276.76,630.50 C271.00,619.02 266.16,606.58 262.31,593.61 ZM 320.99 406.71 C325.98,397.21 326.00,397.12 326.00,387.72 L 326.00 397.17 L 320.99 406.71 ZM 552.00 428.29 C541.66,428.29 533.08,423.47 528.01,415.39 C532.95,422.99 541.47,428.29 552.00,428.29 ZM 580.49 424.83 C585.79,419.11 588.53,413.88 589.54,407.00 C588.68,413.93 586.02,418.87 580.49,424.83 ZM 717.90 621.18 C722.63,614.34 727.89,606.24 732.06,599.35 C729.37,603.92 726.45,608.53 723.26,613.30 C721.28,616.26 719.52,618.85 717.90,621.18 ZM 727.80 400.27 C725.98,398.84 724.47,398.10 723.13,398.04 C723.78,398.04 724.49,398.16 725.27,398.35 C725.67,398.45 726.54,399.11 727.80,400.27 ZM 322.02 351.52 C323.39,350.07 324.69,349.00 325.10,349.00 C325.14,349.00 325.19,349.07 325.22,349.21 C324.59,349.36 323.34,350.25 322.02,351.52 ZM 685.98 657.18 C688.91,654.41 691.96,651.44 694.91,648.45 C694.63,648.74 694.34,649.04 694.05,649.34 C691.53,651.93 688.83,654.55 685.98,657.18 ZM 482.12 625.02 C487.96,624.93 492.80,624.65 493.81,624.14 C493.80,624.14 493.79,624.15 493.78,624.16 C492.98,624.67 488.08,624.94 482.12,625.02 ZM 457.23 623.76 C457.80,624.17 460.77,624.49 464.79,624.71 C460.62,624.49 457.59,624.17 457.23,623.76 ZM 721.38 398.40 C720.23,398.95 719.16,400.12 718.05,401.91 C719.23,399.99 720.26,398.90 721.38,398.40 ZM 581.18 398.84 C581.19,399.13 581.19,399.41 581.18,399.70 C581.16,400.65 581.11,401.59 581.00,402.51 C581.10,401.60 581.16,400.67 581.18,399.73 C581.18,399.43 581.18,399.13 581.18,398.84 ZM 514.15 401.63 C514.19,402.26 514.24,402.94 514.31,403.66 C514.24,402.98 514.18,402.31 514.15,401.63 Z" fill="rgba(9,196,211,1)"/>
<path d="M 616.67 673.25 C617.50,674.65 620.61,674.01 622.56,672.05 C628.23,666.34 628.45,664.48 623.51,667.54 C657.18,644.50 683.80,611.83 699.00,573.00 C700.82,568.33 702.63,564.05 703.01,563.50 C704.39,561.48 711.00,531.82 711.00,527.63 C711.00,526.87 711.10,526.19 711.25,525.71 C711.00,526.58 711.03,528.32 711.30,531.25 C712.03,539.11 710.87,546.38 708.46,549.05 C707.43,550.18 705.88,553.90 705.00,557.30 C703.25,564.09 703.99,569.17 707.18,572.34 C708.43,573.58 708.75,575.18 708.41,578.63 C707.90,583.86 707.28,585.29 705.93,584.46 C705.42,584.14 705.00,584.54 705.00,585.33 C705.00,587.37 702.05,588.30 701.36,586.48 C700.55,584.38 697.36,584.64 695.00,587.00 C693.90,588.10 692.98,588.66 692.96,588.25 C692.93,587.84 692.05,589.14 690.99,591.13 C689.25,594.43 689.03,598.36 690.50,599.84 C690.82,600.15 692.58,600.30 694.42,600.18 C696.65,600.03 697.96,600.46 698.35,601.48 C698.67,602.31 699.57,603.00 700.35,603.00 C701.12,603.00 702.30,603.66 702.98,604.47 C703.95,605.65 703.88,606.26 702.60,607.54 C700.61,609.53 700.52,612.00 702.44,612.00 C703.51,612.00 703.74,612.85 703.33,615.33 C702.96,617.62 703.29,619.15 704.40,620.25 C706.31,622.17 706.52,627.57 704.73,628.70 C704.03,629.14 702.96,630.64 702.35,632.03 C701.26,634.52 699.42,635.21 693.75,635.26 C691.44,635.28 690.60,636.12 688.41,640.59 C686.54,644.43 686.00,646.71 686.47,648.86 C687.22,652.29 686.03,654.81 681.00,660.37 C678.96,662.63 678.33,663.70 679.25,663.32 C677.74,664.65 676.31,665.86 675.00,666.93 C655.20,682.98 643.04,690.73 624.97,698.82 C613.59,703.91 606.73,706.76 599.12,709.30 C604.58,707.31 607.41,705.63 608.68,703.83 C610.37,701.42 610.65,700.20 609.93,698.31 C609.32,696.72 609.35,696.10 610.00,696.50 C611.39,697.36 611.26,694.66 609.84,693.24 C609.00,692.40 608.98,691.73 609.79,690.76 C611.38,688.83 609.95,687.32 606.50,687.29 C599.85,687.24 599.75,687.18 600.20,684.08 L 600.63 681.16 C607.55,677.62 614.26,673.70 620.71,669.43 C618.21,671.23 616.45,672.88 616.67,673.25 ZM 394.01 745.55 C382.86,740.16 372.05,733.95 361.69,726.97 C363.05,727.62 363.81,727.57 364.49,727.00 C365.54,726.13 365.65,725.20 364.90,723.25 C364.36,721.82 364.14,720.07 364.42,719.36 C364.69,718.65 364.48,717.80 363.96,717.47 C362.64,716.66 362.76,712.36 364.16,710.12 C364.79,709.10 365.00,707.43 364.60,706.41 C364.00,704.84 363.75,704.78 362.96,706.03 C362.26,707.14 362.00,706.77 361.90,704.50 C361.82,702.85 361.84,701.09 361.93,700.59 C362.03,700.09 362.19,698.29 362.30,696.59 C362.41,694.89 363.05,693.05 363.72,692.50 C364.92,691.52 364.70,688.92 362.35,676.11 C361.91,673.71 362.06,672.92 362.87,673.42 C365.05,674.76 364.02,669.93 361.62,667.53 C360.31,666.22 358.54,663.09 357.68,660.57 C356.31,656.57 356.31,656.00 357.60,656.00 C359.20,656.00 368.63,662.64 370.87,665.35 C371.63,666.26 372.65,667.00 373.14,667.00 C373.63,667.00 376.57,669.07 379.67,671.60 C382.78,674.13 388.40,678.24 392.16,680.74 C395.92,683.25 399.00,685.43 399.00,685.60 C399.00,686.34 389.65,683.00 388.16,681.72 C384.75,678.81 383.90,678.69 385.09,681.31 C385.70,682.65 386.90,683.69 387.74,683.62 C388.59,683.55 389.51,684.13 389.78,684.91 C390.12,685.89 389.77,686.12 388.61,685.68 C387.22,685.15 387.13,685.37 388.01,687.02 C388.85,688.58 388.75,689.00 387.57,689.00 C385.71,689.00 384.00,692.05 384.00,695.38 C384.00,696.75 383.61,698.12 383.13,698.42 C381.63,699.35 380.65,720.87 382.04,722.54 C382.71,723.36 382.81,724.00 382.25,724.00 C381.10,724.00 380.69,733.96 381.77,735.62 C382.17,736.23 384.38,737.68 386.68,738.85 C388.97,740.01 391.15,741.90 391.51,743.03 C391.75,743.79 392.49,744.58 394.01,745.55 ZM 683.56 483.03 C684.51,480.30 689.58,467.98 695.40,454.28 C701.66,439.55 709.38,421.27 712.57,413.65 C720.81,393.92 722.12,392.85 738.03,410.66 C730.63,402.41 728.22,400.35 727.09,400.95 C725.46,401.82 721.99,410.09 722.00,413.06 C722.00,413.92 721.05,416.59 719.89,418.98 C718.20,422.48 717.92,424.35 718.46,428.42 C721.87,454.00 722.07,470.01 719.06,475.62 C717.93,477.74 716.97,480.15 716.93,480.99 C716.88,482.10 716.67,482.02 716.14,480.68 C715.47,478.98 715.60,427.40 716.31,416.45 C716.49,413.67 717.02,410.78 717.48,410.03 C717.95,409.27 717.14,409.52 715.69,410.58 C714.12,411.73 711.79,415.52 709.92,420.00 C708.20,424.12 701.67,439.55 695.41,454.28 C689.59,467.98 684.51,480.30 683.56,483.03 ZM 565.76 592.75 C569.71,595.12 570.22,595.13 590.56,593.44 C593.50,593.19 595.56,593.13 597.00,592.16 C600.50,589.81 600.42,582.12 600.69,553.50 C600.76,545.57 600.82,539.55 600.83,535.03 C600.93,542.59 600.94,554.47 600.96,572.75 L 600.98 600.50 L 584.13 600.64 C571.04,600.75 565.69,600.74 563.51,603.36 C562.56,604.50 562.21,606.14 562.08,608.50 C561.96,598.34 561.94,584.64 562.01,571.50 L 562.02 590.50 ZM 515.40 604.15 C514.92,604.94 515.14,605.03 516.09,604.45 C516.85,603.97 521.99,603.54 527.49,603.48 C533.00,603.42 539.86,603.00 542.75,602.55 L 547.66 601.77 L 547.61 609.49 L 531.79 609.73 C522.83,609.86 514.04,610.22 512.25,610.53 L 509.16 611.06 C509.06,604.62 509.00,596.35 509.00,587.41 L 509.00 573.10 C509.00,594.81 509.03,595.08 511.51,599.02 C512.89,601.21 514.50,603.00 515.07,603.00 C515.65,603.00 515.80,603.52 515.40,604.15 ZM 479.22 609.99 C481.26,611.24 484.27,611.99 487.17,612.00 C490.20,612.00 492.09,612.17 493.22,611.33 C494.24,610.57 494.65,608.98 494.74,605.67 C494.81,608.76 494.86,611.34 494.87,613.50 L 475.50 613.27 L 456.30 613.03 C455.93,603.52 455.72,589.62 455.79,579.85 C455.77,590.78 456.22,605.62 456.88,606.28 C457.35,606.75 461.83,607.33 466.84,607.57 C473.62,607.89 476.78,608.50 479.22,609.99 ZM 297.89 505.70 C298.35,523.94 301.27,542.25 306.68,560.21 C305.10,555.04 303.70,549.76 302.49,544.37 C301.03,537.87 299.55,532.09 299.19,531.53 C298.83,530.96 298.52,530.26 298.52,529.98 C298.49,529.09 294.26,524.00 293.55,524.00 C293.18,524.00 293.20,524.51 293.58,525.13 C293.99,525.80 293.75,526.08 292.98,525.83 C291.68,525.39 288.96,517.78 289.11,515.00 C289.16,514.17 289.51,514.62 289.89,516.00 C291.01,520.06 294.21,519.65 296.25,515.18 C297.23,513.03 297.70,510.62 297.89,505.70 ZM 712.56 517.11 C712.70,514.10 712.80,510.44 712.86,506.50 L 713.06 492.08 C713.24,493.47 713.84,493.98 715.23,494.18 C716.66,494.38 718.32,496.04 719.81,498.75 C722.10,502.90 722.10,503.00 720.13,503.00 C719.03,503.00 717.86,503.42 717.54,503.94 C717.22,504.45 716.07,504.71 714.98,504.50 C713.40,504.19 713.00,504.66 713.00,506.86 C713.00,508.37 713.47,510.07 714.06,510.66 C715.28,511.88 714.26,517.00 712.80,517.00 C712.71,517.00 712.63,517.04 712.56,517.11 ZM 402.00 602.49 C402.04,611.43 402.39,615.13 403.25,615.67 C403.94,616.10 409.90,616.48 416.50,616.53 C423.10,616.57 430.08,617.13 432.00,617.78 C434.87,618.75 432.81,618.87 420.44,618.44 C412.16,618.15 404.62,618.21 403.69,618.57 C403.08,618.80 402.63,619.23 402.36,619.76 C402.11,616.70 402.00,611.83 402.00,604.80 C402.00,604.02 402.00,603.24 402.00,602.49 ZM 452.47 508.05 C483.98,489.29 509.17,465.33 524.19,439.27 C515.27,454.78 502.45,470.04 487.82,482.59 C471.53,496.56 470.54,498.00 477.23,498.00 C481.22,498.00 479.85,499.45 475.66,499.65 C467.89,500.02 463.12,501.61 455.05,506.51 C454.22,507.01 453.36,507.53 452.47,508.05 ZM 520.42 475.44 C511.08,484.15 500.66,492.09 489.23,499.20 C492.27,497.13 492.24,497.00 489.98,497.00 L 487.50 497.00 L 490.50 494.37 C493.99,491.32 499.01,489.00 502.11,489.00 C504.41,489.00 508.88,485.70 520.42,475.44 ZM 363.61 700.17 C364.12,701.00 364.58,700.77 365.10,699.43 C366.17,696.71 366.16,695.00 365.07,695.00 C363.77,695.00 362.71,698.73 363.61,700.17 ZM 535.50 702.06 C557.29,698.81 578.08,692.25 597.26,682.85 L 594.07 684.46 C578.03,692.50 556.79,698.89 535.50,702.06 ZM 481.61 769.98 C461.79,768.20 442.21,764.00 423.29,757.57 C441.97,763.72 463.46,768.35 481.61,769.98 ZM 361.00 689.06 C361.00,689.58 360.55,690.00 360.00,690.00 C359.45,690.00 359.00,689.30 359.00,688.44 C359.00,687.58 359.45,687.16 360.00,687.50 C360.55,687.84 361.00,688.54 361.00,689.06 ZM 320.98 406.73 C308.88,429.79 301.48,454.57 298.88,479.88 C301.31,454.69 308.75,430.05 320.98,406.73 ZM 385.12 666.62 C411.72,685.02 442.86,697.61 476.12,702.45 C443.23,697.67 412.19,685.42 385.12,666.62 ZM 406.00 531.03 C406.00,531.73 414.62,529.87 423.99,527.33 C413.97,530.24 406.00,532.04 406.00,531.03 ZM 711.43 525.30 C711.54,525.11 711.66,525.00 711.80,525.00 C712.00,525.00 712.21,523.22 712.39,520.31 C712.42,520.53 712.46,520.76 712.50,521.00 C712.98,523.86 712.83,525.00 711.95,525.00 C711.73,525.00 711.56,525.10 711.43,525.30 ZM 471.08 509.36 C465.78,512.02 460.30,514.53 454.65,516.89 C452.52,517.77 450.12,518.70 447.55,519.65 C455.44,516.59 463.70,512.97 471.08,509.36 ZM 708.34 633.99 C704.21,638.85 698.49,644.92 692.63,650.74 C698.49,644.77 704.83,638.07 708.34,633.99 ZM 486.68 571.43 C490.43,570.64 493.56,570.00 493.64,570.00 C493.68,570.00 493.85,574.42 494.06,581.16 C493.82,574.78 493.61,570.35 493.54,570.26 C493.44,570.14 490.36,570.66 486.68,571.43 ZM 580.24 714.88 C575.20,716.37 571.40,717.65 571.01,718.03 C571.26,717.56 575.09,716.23 579.75,715.01 C579.91,714.97 580.08,714.93 580.24,714.88 ZM 347.22 716.47 C343.31,713.42 338.71,709.40 333.92,704.94 C338.38,709.04 342.88,712.95 347.22,716.47 ZM 709.76 488.09 C707.69,488.28 703.55,488.85 699.50,489.51 C704.60,488.67 707.78,488.17 709.76,488.09 ZM 336.13 619.24 C340.89,625.70 346.04,631.88 351.54,637.74 C345.99,631.84 340.85,625.68 336.13,619.24 ZM 461.73 624.51 C464.99,624.76 469.60,624.93 474.32,625.01 C469.60,624.95 464.99,624.78 461.73,624.51 ZM 596.84 526.68 C597.79,526.17 598.34,525.33 599.14,523.83 C599.35,523.43 599.54,523.11 599.70,522.94 C599.55,523.16 599.38,523.48 599.18,523.83 C598.36,525.33 597.80,526.17 596.84,526.68 ZM 745.85 419.48 L 754.16 428.88 L 754.16 428.89 L 745.85 419.48 ZM 566.48 719.98 C565.63,720.40 565.16,720.96 565.33,721.43 C565.33,721.42 565.33,721.41 565.32,721.40 C565.13,720.91 565.59,720.39 566.48,719.98 ZM 548.00 552.00 L 548.02 552.00 L 548.00 555.45 L 548.00 552.00 ZM 303.97 673.09 C303.55,672.54 303.15,672.01 302.77,671.50 C299.11,666.55 295.26,661.38 294.21,660.00 C295.26,661.38 299.11,666.55 302.77,671.50 C303.16,672.02 303.56,672.55 303.97,673.09 ZM 456.35 568.32 C456.35,568.32 456.35,568.31 456.35,568.31 C456.73,567.94 457.53,568.13 458.14,568.74 C457.54,568.14 456.74,567.95 456.35,568.32 Z" fill="rgba(15,130,196,1)"/>
<path d="M 681.00 660.37 C686.03,654.81 687.22,652.29 686.47,648.86 C686.00,646.71 686.54,644.43 688.41,640.59 C690.60,636.12 691.44,635.28 693.75,635.26 C699.42,635.21 701.26,634.52 702.35,632.03 C702.96,630.64 704.03,629.14 704.73,628.70 C706.52,627.57 706.31,622.17 704.40,620.25 C703.29,619.15 702.96,617.62 703.33,615.33 C703.74,612.85 703.51,612.00 702.44,612.00 C700.52,612.00 700.61,609.53 702.60,607.54 C703.88,606.26 703.95,605.65 702.98,604.47 C702.30,603.66 701.12,603.00 700.35,603.00 C699.57,603.00 698.67,602.31 698.35,601.48 C697.96,600.46 696.65,600.03 694.42,600.18 C692.58,600.30 690.82,600.15 690.50,599.84 C689.03,598.36 689.25,594.43 690.99,591.13 C692.05,589.14 692.93,587.84 692.96,588.25 C692.98,588.66 693.90,588.10 695.00,587.00 C697.36,584.64 700.55,584.38 701.36,586.48 C702.05,588.30 705.00,587.37 705.00,585.33 C705.00,584.54 705.42,584.14 705.93,584.46 C707.28,585.29 707.90,583.86 708.41,578.63 C708.75,575.18 708.43,573.58 707.18,572.34 C703.99,569.17 703.25,564.09 705.00,557.30 C705.88,553.90 707.43,550.18 708.46,549.05 C710.87,546.38 712.03,539.11 711.30,531.25 C710.88,526.67 711.05,525.00 711.95,525.00 C712.83,525.00 712.98,523.86 712.50,521.00 C712.09,518.60 712.21,517.00 712.80,517.00 C714.26,517.00 715.28,511.88 714.06,510.66 C713.47,510.07 713.00,508.37 713.00,506.86 C713.00,504.66 713.40,504.19 714.98,504.50 C716.07,504.71 717.22,504.45 717.54,503.94 C717.86,503.42 719.03,503.00 720.13,503.00 C722.10,503.00 722.10,502.90 719.81,498.75 C718.32,496.04 716.66,494.38 715.23,494.18 C713.50,493.93 713.00,493.20 713.00,490.93 C713.00,488.07 712.67,487.51 705.46,488.57 C712.47,487.28 714.06,486.43 714.65,484.69 C715.06,483.49 715.52,468.77 715.68,452.00 C715.70,450.37 715.71,448.80 715.73,447.30 C715.65,463.47 715.77,479.74 716.14,480.68 C716.67,482.02 716.88,482.10 716.93,480.99 C716.97,480.15 717.93,477.74 719.06,475.62 C722.07,470.01 721.87,454.00 718.46,428.42 C717.92,424.35 718.20,422.48 719.89,418.98 C721.05,416.59 722.00,413.92 722.00,413.06 C721.99,410.09 725.46,401.82 727.09,400.95 C728.38,400.26 731.32,403.03 741.44,414.49 L 743.73 417.09 C738.68,411.44 734.21,407.09 733.62,407.29 C731.67,407.94 731.25,416.72 731.57,450.07 C731.74,467.91 731.91,482.67 731.94,482.89 C732.00,483.28 753.59,482.28 757.73,481.69 C759.02,481.51 759.85,481.28 760.21,481.00 C760.45,481.66 760.54,482.54 760.55,483.77 C760.58,485.76 760.96,494.13 761.41,502.57 C761.31,502.21 761.19,502.00 761.06,502.00 C759.49,502.00 759.15,503.26 758.09,513.07 C755.80,534.31 754.91,540.10 753.08,545.66 C747.31,563.26 743.40,573.16 736.64,587.30 C732.67,595.61 729.70,602.46 729.84,602.97 C722.91,614.12 714.04,627.15 709.18,633.00 C702.73,640.75 681.90,661.96 679.50,663.20 C678.24,663.86 678.80,662.81 681.00,660.37 ZM 441.71 762.91 C431.28,760.27 421.09,757.07 412.03,753.53 C396.98,747.64 392.20,745.20 391.51,743.03 C391.15,741.90 388.97,740.01 386.68,738.85 C384.38,737.68 382.17,736.23 381.77,735.62 C380.69,733.96 381.10,724.00 382.25,724.00 C382.81,724.00 382.71,723.36 382.04,722.54 C380.65,720.87 381.63,699.35 383.13,698.42 C383.61,698.12 384.00,696.75 384.00,695.38 C384.00,692.05 385.71,689.00 387.57,689.00 C388.75,689.00 388.85,688.58 388.01,687.02 C387.13,685.37 387.22,685.15 388.61,685.68 C389.77,686.12 390.12,685.89 389.78,684.91 C389.51,684.13 388.59,683.55 387.74,683.62 C386.90,683.69 385.70,682.65 385.09,681.31 C383.90,678.69 384.75,678.81 388.16,681.72 C389.65,683.00 399.00,686.34 399.00,685.60 C399.00,685.43 395.92,683.25 392.16,680.74 C391.45,680.27 390.68,679.75 389.87,679.19 C406.63,690.66 429.09,702.08 448.00,708.44 C455.42,710.94 460.34,712.99 458.93,713.00 C456.13,713.00 446.11,710.26 444.50,709.04 C443.07,707.97 433.85,705.81 433.25,706.41 C432.48,707.19 432.77,710.94 434.08,717.00 C434.73,720.03 435.35,727.67 435.46,734.00 C435.57,740.33 436.01,746.29 436.43,747.25 C436.86,748.21 436.87,749.79 436.45,750.75 C434.79,754.57 437.58,761.01 441.71,762.91 ZM 308.78 434.84 C301.63,455.39 298.00,476.69 298.00,498.22 C298.00,508.59 297.63,512.15 296.25,515.18 C294.21,519.65 291.01,520.06 289.89,516.00 C289.66,515.15 289.44,514.66 289.29,514.59 C286.38,496.99 284.84,463.08 287.02,444.97 C288.12,435.88 295.14,405.92 295.75,407.74 C295.95,408.35 295.38,412.36 294.48,416.67 C290.69,434.88 290.09,440.58 291.54,444.78 C292.28,446.95 293.20,451.15 293.58,454.11 C293.96,457.07 294.94,460.82 295.76,462.44 L 297.25 465.38 L 299.37 462.46 C300.54,460.86 302.94,454.26 304.71,447.80 C305.87,443.55 307.24,439.21 308.78,434.84 ZM 565.76 592.75 L 562.02 590.50 L 562.01 560.31 C562.01,559.70 562.01,559.10 562.01,558.51 C562.07,570.09 562.39,579.00 562.78,579.00 C563.21,579.00 564.44,578.39 565.53,577.65 C566.99,576.65 569.06,576.50 573.50,577.06 C576.80,577.49 583.46,577.87 588.30,577.92 L 597.10 578.00 L 599.03 573.75 C599.80,572.04 600.27,570.54 600.55,567.44 C600.32,584.80 599.85,590.25 597.00,592.16 C595.56,593.13 593.50,593.19 590.56,593.44 C570.22,595.13 569.71,595.12 565.76,592.75 ZM 515.40 604.15 C515.80,603.52 515.65,603.00 515.07,603.00 C514.50,603.00 512.89,601.21 511.51,599.02 C509.03,595.08 509.00,594.81 509.00,573.10 L 509.00 554.17 L 509.23 570.33 L 509.50 589.50 L 516.50 590.18 C520.35,590.55 525.53,591.30 528.00,591.84 C532.12,592.74 545.47,592.38 547.25,591.33 C547.66,591.08 548.00,582.13 548.00,571.44 L 548.00 601.72 L 542.75 602.55 C539.86,603.00 533.00,603.42 527.49,603.48 C521.99,603.54 516.85,603.97 516.09,604.45 C515.14,605.03 514.92,604.94 515.40,604.15 ZM 536.23 458.90 C531.33,464.93 526.37,470.13 521.08,474.85 C509.05,485.57 504.45,489.00 502.11,489.00 C499.01,489.00 493.99,491.32 490.50,494.37 L 487.50 497.00 L 489.98 497.00 C490.09,497.00 490.19,497.00 490.29,497.00 L 488.67 497.00 C486.58,497.00 483.89,497.52 482.70,498.16 C481.51,498.80 478.74,499.44 476.54,499.59 C480.02,499.25 480.93,498.00 477.23,498.00 C470.54,498.00 471.53,496.56 487.82,482.59 C489.86,480.84 491.86,479.04 493.83,477.19 L 488.50 482.50 L 497.70 482.34 C506.10,482.18 507.26,481.92 511.20,479.22 C513.56,477.60 517.45,475.29 519.83,474.08 C522.73,472.60 524.61,470.79 525.54,468.56 C526.40,466.49 527.85,465.00 529.38,464.62 C530.97,464.22 533.28,462.29 536.23,458.90 ZM 479.22 609.99 C476.78,608.50 473.62,607.89 466.84,607.57 C461.83,607.33 457.35,606.75 456.88,606.28 C456.38,605.78 456.00,597.01 455.86,588.03 C456.15,599.28 457.26,600.39 462.35,599.58 C475.80,597.46 478.29,597.60 484.43,600.88 C490.65,604.20 491.03,604.31 493.29,603.44 C494.50,602.98 494.65,600.23 494.24,586.69 C494.19,584.95 494.13,583.26 494.08,581.67 C494.18,584.39 494.29,587.43 494.39,590.63 C494.87,605.16 495.23,609.85 493.22,611.33 C492.09,612.17 490.20,612.00 487.17,612.00 C484.27,611.99 481.26,611.24 479.22,609.99 ZM 430.00 609.90 C431.92,610.39 435.19,610.84 437.25,610.90 L 440.98 611.00 C440.96,614.20 440.92,616.64 440.84,618.50 L 432.83 618.53 C433.47,618.40 433.10,618.15 432.00,617.78 C430.08,617.13 423.10,616.57 416.50,616.53 C409.90,616.48 403.94,616.10 403.25,615.67 C402.35,615.10 402.00,611.01 402.00,600.94 C402.00,599.47 402.01,598.05 402.02,596.71 C402.19,601.47 402.58,606.24 403.03,606.52 C403.59,606.87 407.08,607.35 410.78,607.59 C420.54,608.23 426.03,608.89 430.00,609.90 ZM 540.61 407.39 C539.70,406.48 538.90,405.65 538.23,404.88 C539.41,405.46 540.62,404.57 542.72,402.00 C543.38,401.20 543.19,400.17 542.56,399.23 C542.69,399.34 542.82,399.45 542.95,399.57 C545.15,401.56 547.38,403.03 547.91,402.84 C548.43,402.65 552.50,399.01 556.94,394.75 C557.64,394.09 558.33,393.44 559.01,392.83 C556.77,395.09 555.06,397.28 555.44,397.90 C555.81,398.51 557.94,399.00 560.17,399.00 C562.21,399.00 563.46,398.79 564.74,397.95 C562.02,400.72 558.80,403.83 555.90,406.50 C557.57,404.66 557.35,404.41 555.80,404.58 C554.53,404.72 552.51,404.87 551.29,404.92 C548.42,405.02 544.39,409.26 544.94,411.26 C543.65,410.25 542.11,408.89 540.61,407.39 ZM 578.50 386.94 C580.24,390.25 582.29,390.74 586.37,388.88 C587.58,388.33 588.17,387.96 588.29,387.36 C589.35,391.18 590.00,395.58 590.00,400.00 C590.00,400.14 590.00,400.28 590.00,400.43 C589.98,395.21 589.77,395.00 587.50,395.00 C584.26,395.00 581.72,397.54 581.12,401.14 C581.15,400.66 581.17,400.18 581.18,399.70 C581.25,395.50 580.21,390.78 578.50,386.94 ZM 556.00 432.63 L 556.00 437.01 L 551.64 437.50 L 550.96 438.50 C553.58,434.40 553.97,433.12 553.99,431.31 C554.00,429.46 553.27,429.02 549.25,428.45 C535.11,426.45 525.58,416.94 523.47,402.72 C525.76,418.20 537.03,428.29 552.00,428.29 C556.67,428.29 561.06,427.26 564.93,425.40 C562.12,426.91 559.37,427.96 557.75,427.98 C556.34,428.00 556.00,428.90 556.00,432.63 ZM 424.48 618.57 L 422.75 618.58 C412.71,618.62 403.94,618.73 403.25,618.83 C403.22,618.83 403.19,618.83 403.16,618.84 C403.32,618.73 403.50,618.64 403.69,618.57 C404.62,618.21 412.16,618.15 420.44,618.44 C421.93,618.49 423.28,618.53 424.48,618.57 ZM 587.27 384.18 C586.52,382.65 585.34,380.49 584.35,378.88 C583.93,378.19 583.57,377.64 583.22,377.19 C584.73,378.66 586.13,381.12 587.27,384.18 ZM 760.96 522.06 C760.38,523.79 759.58,527.24 759.04,530.47 C757.91,537.21 754.94,547.26 751.15,557.82 C754.97,546.94 758.04,536.40 759.02,530.47 C759.61,526.96 760.44,523.37 760.96,522.06 ZM 481.61 769.98 C473.90,769.29 465.58,768.05 457.13,766.39 C465.61,767.92 475.54,769.43 481.61,769.98 ZM 743.41 577.36 C741.55,581.63 739.65,585.68 737.79,589.30 C737.27,590.31 736.66,591.45 735.97,592.68 C738.39,587.99 741.13,582.38 743.41,577.36 ZM 578.83 410.86 C579.92,408.30 580.66,405.54 580.99,402.63 C580.99,402.67 580.99,402.71 580.99,402.75 C580.98,405.06 580.17,407.96 578.83,410.86 ZM 588.47 411.82 C587.02,416.49 584.48,420.52 580.49,424.83 C577.68,427.87 574.60,430.36 571.31,432.29 C574.62,430.31 577.78,427.76 580.49,424.83 C584.37,420.65 586.98,416.43 588.47,411.82 ZM 464.97 501.55 C468.30,500.38 471.55,499.85 475.61,499.65 C471.26,499.98 468.09,500.49 464.97,501.55 ZM 455.98 570.94 C456.06,569.43 456.18,568.49 456.33,568.33 C456.46,568.21 456.64,568.14 456.84,568.13 C456.42,568.35 456.15,569.21 455.98,570.94 ZM 536.95 397.02 C536.96,397.02 536.97,397.02 536.97,397.01 C537.89,396.53 538.60,396.44 539.63,396.98 C538.70,396.65 537.74,396.61 536.95,397.02 ZM 291.33 523.36 C291.93,524.69 292.53,525.67 292.98,525.83 C292.97,525.82 292.96,525.82 292.95,525.82 C292.40,525.63 291.85,524.77 291.33,523.36 ZM 761.78 517.45 C761.71,519.34 761.54,520.59 761.29,521.21 C761.50,520.41 761.67,519.06 761.78,517.45 ZM 717.48 410.03 C717.18,410.52 716.85,411.92 716.61,413.60 C716.83,411.59 717.11,410.63 717.48,410.03 ZM 403.20 623.80 C402.41,623.01 402.03,622.01 402.04,621.08 C402.10,622.03 402.48,623.08 403.20,623.80 ZM 548.45 412.75 C548.18,412.90 547.98,412.99 547.86,412.99 C547.77,412.99 547.66,412.96 547.52,412.91 C547.81,412.91 548.12,412.85 548.45,412.75 ZM 687.90 490.52 C687.80,490.49 687.71,490.44 687.63,490.40 C686.89,490.02 686.29,489.38 685.36,488.45 C686.36,489.45 687.01,490.11 687.79,490.48 C687.83,490.49 687.86,490.51 687.90,490.52 ZM 571.00 390.54 C571.00,390.58 571.00,390.61 571.00,390.64 C571.00,390.77 570.89,391.00 570.68,391.31 C570.87,390.98 570.98,390.71 571.00,390.54 ZM 575.40 378.11 C574.42,379.20 574.05,379.74 574.28,380.40 C574.03,379.74 574.40,379.22 575.40,378.11 ZM 754.42 474.42 C754.64,475.62 755.00,476.55 755.54,477.27 C754.99,476.55 754.65,475.64 754.42,474.42 Z" fill="rgba(16,141,203,1)"/>
<path d="M 650.03 472.50 C650.04,440.35 650.05,414.78 650.03,394.44 C650.17,395.33 650.72,396.00 651.38,396.00 C652.14,396.00 653.36,396.72 654.09,397.61 C655.22,398.97 655.16,399.41 653.71,400.47 C651.60,402.01 651.50,405.84 653.50,408.70 C654.84,410.61 654.84,411.01 653.50,412.35 C651.60,414.26 651.62,414.92 653.65,417.17 C654.91,418.55 655.63,418.72 656.65,417.87 C657.39,417.26 658.00,416.05 658.00,415.19 C658.00,413.93 657.71,414.01 656.55,415.56 C655.12,417.47 655.11,417.47 655.56,415.50 C656.23,412.55 656.59,398.00 655.98,398.00 C655.70,398.00 655.54,395.86 655.63,393.25 C655.72,390.64 655.41,387.83 654.93,387.00 C654.31,385.92 654.05,385.87 654.03,386.81 C654.01,387.53 653.55,387.84 653.00,387.50 C652.43,387.15 652.00,387.99 652.00,389.44 C652.00,390.85 651.55,392.00 651.00,392.00 C650.54,392.00 650.15,392.64 650.03,393.49 C649.98,338.46 649.66,322.04 648.06,316.37 C649.25,318.23 650.00,320.28 650.00,322.02 C650.00,323.96 650.14,324.00 651.58,322.56 C652.45,321.69 653.52,321.21 653.97,321.48 C654.41,321.75 656.57,319.60 658.77,316.68 C662.33,311.97 662.74,310.87 662.45,306.64 C662.07,300.87 658.05,296.11 653.02,295.48 C651.24,295.25 649.20,294.58 648.47,293.98 C647.75,293.38 643.64,292.66 639.33,292.38 C635.02,292.09 631.07,291.44 630.55,290.93 C630.31,290.70 629.12,290.49 627.34,290.34 C638.32,290.70 648.22,291.31 650.00,291.98 C658.24,295.08 665.80,303.03 667.99,310.89 C668.64,313.23 668.99,365.07 668.99,458.01 L 669.00 601.52 L 660.25 613.25 C655.44,619.71 651.17,624.99 650.76,624.99 C650.65,624.99 650.55,620.16 650.46,611.49 C650.71,612.75 651.10,613.56 651.65,614.17 C653.82,616.56 655.43,616.48 659.05,613.80 C661.03,612.34 662.59,609.82 663.71,606.24 C665.69,599.96 665.22,598.76 659.48,595.55 C657.14,594.25 655.37,592.46 655.19,591.22 C654.80,588.63 652.00,589.35 652.00,592.05 C652.00,593.06 651.55,594.16 651.00,594.50 C650.75,594.66 650.51,595.63 650.34,597.10 C650.15,569.42 650.03,523.81 650.03,472.50 ZM 358.56 605.30 C358.40,604.29 358.21,603.63 358.00,603.50 C357.45,603.16 357.00,601.93 357.00,600.76 C357.00,599.60 356.47,597.19 355.83,595.41 L 354.67 592.19 L 351.87 594.25 C349.65,595.89 348.79,596.07 347.64,595.12 C346.65,594.29 346.03,594.25 345.67,594.98 C345.39,595.57 345.27,595.48 345.41,594.78 C345.55,594.07 346.30,593.50 347.08,593.50 C348.01,593.50 348.61,592.16 348.82,589.65 C349.02,587.11 348.77,586.02 348.07,586.46 C347.48,586.82 347.00,586.39 347.00,585.50 C347.00,584.61 347.40,584.13 347.89,584.43 C348.69,584.93 349.80,581.32 350.26,576.75 C350.35,575.79 350.78,575.00 351.21,575.00 C351.65,575.00 352.00,574.33 352.00,573.50 C352.00,572.67 352.39,572.00 352.86,572.00 C353.34,572.00 353.65,570.99 353.55,569.75 C353.45,568.51 353.82,566.60 354.37,565.50 C354.92,564.40 355.24,559.90 355.08,555.50 C354.92,551.10 354.72,545.70 354.64,543.50 C354.51,539.72 354.34,539.52 351.63,539.81 C348.85,540.10 348.78,540.00 349.41,536.63 C349.77,534.72 349.66,532.91 349.17,532.60 C347.81,531.76 348.58,521.22 350.13,519.33 C351.20,518.04 351.23,517.58 350.25,517.25 C348.40,516.63 348.73,514.68 351.00,512.73 C352.10,511.79 353.00,511.49 353.00,512.07 C353.00,512.65 353.45,512.84 353.99,512.50 C354.91,511.94 355.24,501.00 354.33,501.00 C354.11,501.00 352.84,501.71 351.51,502.59 C347.84,504.99 346.89,503.63 347.38,496.67 C347.62,493.28 347.86,490.33 347.91,490.13 C347.96,489.92 348.63,490.28 349.40,490.92 C350.17,491.55 351.64,492.24 352.68,492.44 C354.42,492.77 354.53,492.15 354.24,483.65 C354.07,478.62 353.98,472.02 354.05,469.00 C354.23,460.33 354.28,443.65 354.12,442.00 C354.04,441.17 354.10,437.91 354.25,434.75 C354.53,428.80 354.24,428.16 352.20,430.20 C351.35,431.05 351.00,431.07 351.00,430.27 C351.00,429.64 351.87,428.86 352.94,428.52 C354.82,427.92 354.89,426.59 354.92,385.75 C354.95,353.47 354.67,343.41 353.73,342.80 C352.80,342.19 352.78,341.82 353.67,341.24 C354.47,340.72 354.76,337.38 354.57,330.77 C354.31,321.70 354.45,320.93 356.65,318.86 C357.94,317.65 359.00,316.90 359.00,317.21 C359.00,317.31 359.18,317.22 359.50,316.98 L 359.00 471.09 L 358.56 605.30 ZM 661.56 579.50 C662.37,581.42 663.67,583.00 664.46,583.00 C666.52,583.00 666.76,574.72 665.26,556.00 C663.92,539.39 663.04,535.20 662.08,540.99 C661.42,544.96 658.58,546.31 657.72,543.05 C657.34,541.60 657.67,540.99 658.84,540.97 C660.29,540.94 660.26,540.75 658.62,539.52 C657.52,538.68 657.00,537.45 657.36,536.51 C657.71,535.60 657.36,534.69 656.54,534.38 C655.47,533.97 655.35,533.22 656.03,531.41 C656.60,529.92 656.59,529.00 656.01,529.00 C655.49,529.00 655.35,528.21 655.69,527.25 C656.51,524.97 659.59,522.00 661.12,522.00 C661.79,522.00 662.00,521.66 661.58,521.25 C661.17,520.84 660.31,520.49 659.67,520.49 C658.54,520.47 658.24,517.10 659.09,514.00 C659.32,513.17 658.93,512.61 658.23,512.76 C657.33,512.94 657.15,512.22 657.62,510.26 C658.53,506.43 659.88,504.00 661.09,504.00 C661.66,504.00 661.84,504.45 661.50,505.00 C661.16,505.55 661.36,506.00 661.94,506.00 C663.73,506.00 663.12,508.08 660.75,510.06 C658.88,511.62 658.79,511.94 660.20,511.97 C661.14,511.99 662.41,512.79 663.03,513.75 C664.09,515.41 664.12,515.41 663.61,513.75 C663.31,512.79 663.52,509.54 664.08,506.53 C664.79,502.68 664.77,500.44 664.01,499.02 C663.28,497.66 663.27,497.00 663.96,497.00 C664.53,497.00 665.00,495.90 665.00,494.56 C665.00,493.22 665.39,491.88 665.87,491.58 C666.35,491.29 667.04,488.35 667.42,485.05 C668.25,477.69 666.56,471.16 663.52,470.01 C660.52,468.87 658.97,466.67 658.72,463.21 C658.60,461.55 658.16,460.40 657.75,460.66 C656.41,461.48 656.61,441.44 658.00,435.50 C658.13,434.95 658.18,432.25 658.10,429.50 C658.01,425.87 657.70,424.91 657.00,426.00 C656.47,426.83 656.02,427.03 656.02,426.45 C656.01,425.87 656.49,424.91 657.10,424.30 C658.71,422.69 657.33,419.45 654.96,419.27 C653.46,419.16 652.77,419.88 652.34,422.06 C652.01,423.68 651.34,425.00 650.83,425.00 C649.70,425.00 649.88,503.81 651.01,504.51 C651.45,504.78 651.80,506.67 651.80,508.71 C651.80,510.76 652.29,512.60 652.90,512.80 C653.51,513.00 653.99,513.92 653.98,514.83 C653.97,516.27 653.84,516.30 653.00,515.00 C652.63,514.43 652.39,514.03 652.22,514.06 C651.89,514.12 651.89,515.91 651.84,521.50 C651.77,528.57 651.88,529.19 653.00,528.50 C653.57,528.15 654.00,529.01 654.00,530.50 C654.00,531.99 653.57,532.85 653.00,532.50 C651.66,531.67 651.74,532.61 653.19,534.94 C654.13,536.44 654.05,538.41 652.82,544.17 C650.92,553.10 651.35,570.08 653.56,573.46 C654.36,574.67 654.75,575.92 654.44,576.23 C654.12,576.54 654.42,577.14 655.09,577.55 C655.87,578.04 656.05,577.89 655.60,577.15 C655.13,576.39 655.77,576.00 657.49,576.00 C659.53,576.00 660.42,576.77 661.56,579.50 ZM 347.28 611.13 C345.87,609.28 344.60,607.58 343.72,606.37 L 340.00 601.23 L 340.02 312.50 L 342.39 307.50 C345.34,301.28 350.97,295.80 357.50,292.80 C361.48,290.97 363.21,290.58 378.75,290.33 C377.10,290.49 376.33,290.72 376.50,291.00 C376.84,291.55 376.61,292.00 375.99,292.00 C374.34,292.00 372.00,294.60 372.00,296.43 C372.00,297.33 371.15,298.00 370.00,298.00 C368.90,298.00 368.00,298.34 367.99,298.75 C367.99,299.16 365.74,299.58 362.99,299.68 C360.25,299.78 358.00,299.44 358.00,298.93 C358.00,298.42 356.44,298.00 354.53,298.00 C351.63,298.00 350.78,298.53 349.40,301.20 C348.04,303.83 347.95,304.97 348.90,307.59 C350.50,312.03 348.67,316.21 345.47,315.40 C343.57,314.93 343.18,315.33 342.74,318.17 C341.96,323.29 343.93,333.24 345.60,332.60 C347.05,332.04 349.37,335.29 348.30,336.37 C347.95,336.72 348.10,337.00 348.63,337.00 C349.84,337.00 352.32,343.67 351.57,344.89 C351.26,345.40 349.47,345.44 347.51,345.00 C344.31,344.28 344.00,344.41 344.00,346.44 C344.00,349.52 344.69,349.95 348.08,348.98 C349.68,348.52 351.00,348.50 351.00,348.95 C351.00,350.53 347.98,352.23 346.07,351.73 C345.00,351.45 343.97,351.73 343.78,352.36 C343.58,352.99 343.28,363.92 343.11,376.65 C342.80,399.44 342.82,399.81 344.90,400.47 C347.22,401.21 347.16,401.08 347.54,406.00 C347.69,407.92 347.89,409.50 347.98,409.50 C348.07,409.50 348.28,412.42 348.46,416.00 C348.83,423.77 347.66,426.01 344.93,422.73 C343.08,420.52 343.06,420.56 342.84,428.50 C342.72,432.90 342.66,437.62 342.72,439.00 C342.78,440.38 342.81,460.17 342.79,483.00 C342.77,505.83 342.77,525.62 342.79,527.00 C343.09,547.55 342.91,555.39 341.90,565.55 C340.78,576.79 340.83,578.03 342.73,584.05 C343.98,588.03 344.57,591.97 344.26,594.34 C343.98,596.45 344.30,599.20 344.96,600.43 C345.63,601.67 345.95,604.06 345.69,605.74 C345.41,607.50 345.70,608.80 347.28,611.13 ZM 433.51 320.83 C429.79,317.90 428.45,314.73 428.10,305.86 C428.47,308.15 429.19,310.15 430.25,311.26 C431.49,312.55 433.46,314.77 434.64,316.18 C438.09,320.34 445.12,320.92 486.50,320.52 C506.85,320.32 529.58,320.46 537.00,320.83 C544.42,321.20 552.53,321.19 555.00,320.81 C557.47,320.43 562.03,320.09 565.13,320.06 C570.39,320.00 576.93,318.06 578.89,316.06 C578.77,316.42 578.63,316.74 578.48,317.03 C578.00,317.97 577.64,318.76 577.13,319.42 C574.25,323.14 566.41,323.00 503.68,323.00 L 436.27 323.00 ZM 583.50 673.00 C583.89,673.62 585.20,673.43 587.06,672.47 C587.07,672.46 587.08,672.46 587.09,672.45 C585.92,673.49 581.56,674.98 576.06,677.13 C571.92,678.75 567.09,680.37 562.00,681.88 C562.47,681.28 563.02,679.77 563.33,678.21 C563.83,675.62 563.60,674.80 562.23,674.35 C558.00,672.93 555.00,671.45 555.00,670.78 C555.00,670.44 538.95,670.14 517.73,670.08 C558.54,670.10 577.72,670.07 584.46,670.91 C584.47,670.94 584.48,670.97 584.50,671.00 C584.84,671.55 584.61,672.00 584.00,672.00 C583.39,672.00 583.16,672.45 583.50,673.00 ZM 542.34 275.99 L 552.80 276.00 C579.63,276.00 580.00,276.32 580.00,299.50 C580.00,301.84 579.98,303.87 579.95,305.65 C579.41,299.84 577.92,292.69 575.83,287.00 C574.20,282.60 568.94,279.84 559.24,278.30 C557.45,278.01 555.73,277.38 555.43,276.89 C555.13,276.40 550.18,276.00 544.44,276.00 C543.69,276.00 542.99,276.00 542.34,275.99 ZM 428.00 299.22 C428.01,285.56 429.04,281.69 433.51,278.17 C436.12,276.12 437.30,276.00 455.02,276.00 L 470.35 276.00 C467.16,276.57 461.81,277.03 453.00,277.60 C443.42,278.22 435.98,279.84 433.75,281.78 C432.61,282.78 432.00,284.76 432.00,287.47 C432.00,290.24 431.33,292.34 430.00,293.77 C428.96,294.88 428.30,296.91 428.00,299.22 ZM 480.51 264.21 C490.87,251.69 509.41,249.20 522.65,259.12 C520.72,257.99 518.49,256.99 517.00,256.77 C515.08,256.48 511.17,256.72 508.33,257.31 C504.53,258.10 501.80,258.07 498.02,257.19 C492.10,255.83 489.48,256.74 484.60,261.88 C483.00,263.55 481.24,264.65 480.69,264.31 C480.63,264.27 480.57,264.24 480.51,264.21 ZM 438.20 670.33 C452.77,670.16 474.81,670.06 499.68,670.06 C462.71,670.09 460.59,670.28 457.72,672.03 C454.24,674.15 442.00,674.90 442.00,673.00 C442.00,672.45 441.30,672.00 440.44,672.00 C439.58,672.00 439.16,671.55 439.50,671.00 C439.67,670.72 439.22,670.50 438.20,670.33 ZM 608.74 309.84 L 591.50 309.50 L 591.39 305.98 L 592.00 301.00 C592.64,295.76 592.69,295.69 592.97,299.50 L 593.26 303.50 L 594.74 296.50 L 594.87 299.80 C594.96,301.99 595.92,303.96 597.75,305.67 C599.26,307.08 600.39,308.64 600.25,309.12 C600.17,309.42 603.53,309.68 608.74,309.84 ZM 591.17 298.92 L 590.93 291.13 L 595.34 290.47 C598.47,290.00 607.46,289.92 617.30,290.09 C611.71,290.18 609.32,290.49 610.50,291.00 C611.84,291.57 609.71,291.88 604.06,291.93 C596.84,291.99 595.30,292.31 593.31,294.17 C591.87,295.53 591.30,296.63 591.17,298.92 ZM 452.77 683.54 C452.51,683.47 452.26,683.41 452.00,683.34 C447.17,682.05 440.03,679.59 433.72,677.17 C434.87,677.52 435.75,677.65 436.08,677.45 C439.37,675.42 449.00,677.74 449.00,680.57 C449.00,681.76 449.84,682.58 452.77,683.54 ZM 397.47 309.98 C395.73,309.99 393.88,310.00 391.93,310.00 L 369.54 310.00 C370.15,309.94 370.84,309.90 371.63,309.88 C374.31,309.82 375.75,309.57 374.84,309.33 C371.56,308.46 372.00,306.22 375.57,305.55 C380.49,304.63 384.08,307.07 380.84,309.12 C380.10,309.59 387.26,309.96 397.47,309.98 ZM 512.58 291.75 C518.97,285.89 518.08,276.46 510.70,271.96 C510.43,271.79 510.15,271.64 509.87,271.49 C514.48,273.67 518.72,277.87 519.33,281.62 C519.94,285.41 518.74,289.00 516.85,289.00 C516.25,289.00 514.23,290.35 512.35,292.00 C512.12,292.20 511.89,292.39 511.65,292.57 C511.95,292.32 512.25,292.05 512.58,291.75 ZM 481.50 688.99 C480.98,688.95 480.46,688.90 479.95,688.85 C480.57,688.60 481.20,687.95 481.52,686.94 C482.07,685.22 482.69,684.99 485.34,685.56 C489.67,686.49 492.17,687.91 491.47,689.05 C491.31,689.30 492.28,689.51 494.18,689.67 C489.40,689.53 484.99,689.31 481.50,688.99 ZM 661.97 482.31 C661.95,484.06 661.34,486.29 660.60,487.26 C659.41,488.83 659.21,488.57 658.70,484.78 C658.14,480.61 659.35,477.48 661.11,478.57 C661.60,478.87 661.99,480.55 661.97,482.31 ZM 526.63 262.67 C529.05,265.25 531.59,268.90 532.55,271.25 L 533.41 273.33 C533.32,273.33 533.23,273.36 533.13,273.42 C532.66,273.71 531.55,273.16 530.67,272.19 C528.76,270.08 525.88,263.46 526.57,262.77 C526.60,262.74 526.62,262.70 526.63,262.67 ZM 530.58 688.82 C530.31,688.86 530.04,688.89 529.77,688.92 C527.37,689.19 524.24,689.39 520.67,689.54 C521.47,689.45 521.90,689.35 521.88,689.25 C521.50,686.84 522.32,686.00 525.03,686.00 C526.80,686.00 528.30,686.62 528.64,687.50 C528.86,688.08 529.64,688.58 530.58,688.82 ZM 351.73 468.98 C351.87,470.64 351.53,472.00 350.99,472.00 C350.44,472.00 350.00,471.38 350.00,470.62 C350.00,469.86 349.10,469.00 348.00,468.71 C346.90,468.42 346.00,467.70 346.00,467.09 C346.00,466.49 346.90,466.00 348.00,466.00 C349.10,466.00 350.33,465.99 350.74,465.98 C351.15,465.97 351.60,467.32 351.73,468.98 ZM 352.38 487.20 C351.68,488.33 350.24,488.19 349.46,486.93 C349.09,486.34 348.17,486.11 347.40,486.40 C345.72,487.04 345.56,485.84 347.12,484.28 C348.94,482.46 353.68,485.09 352.38,487.20 ZM 543.27 686.64 C539.84,687.37 536.56,687.97 533.56,688.42 C533.44,688.30 533.25,688.16 533.00,688.00 C532.17,687.47 531.95,687.02 532.50,687.00 C533.05,686.98 532.83,686.53 532.00,686.00 C530.85,685.26 531.21,685.04 533.50,685.09 C535.15,685.12 537.40,685.53 538.50,686.00 C540.36,686.80 540.33,686.86 538.08,686.93 C536.75,686.97 535.95,687.29 536.30,687.64 C536.52,687.85 539.46,687.39 543.27,686.64 ZM 662.25 498.52 C662.86,501.74 661.73,502.46 659.65,500.16 C658.40,498.78 658.30,498.10 659.21,497.19 C660.99,495.41 661.72,495.73 662.25,498.52 ZM 662.93 434.31 C662.97,434.75 663.39,434.88 663.86,434.58 C664.34,434.29 664.73,432.27 664.73,430.09 C664.73,426.74 664.52,426.34 663.36,427.50 C662.61,428.25 662.19,429.91 662.42,431.18 C662.66,432.46 662.88,433.86 662.93,434.31 ZM 478.75 688.73 C472.96,688.11 467.78,687.21 461.06,685.63 C461.60,685.75 462.15,685.87 462.73,685.99 C472.20,688.02 473.08,688.06 474.60,686.55 C476.54,684.61 478.56,685.04 478.36,687.36 C478.30,688.02 478.47,688.48 478.75,688.73 ZM 662.72 524.72 C663.60,527.00 664.66,525.17 664.41,521.80 C663.97,515.79 663.78,515.46 663.00,519.48 C662.58,521.67 662.46,524.03 662.72,524.72 ZM 396.15 290.10 L 416.73 289.86 L 416.74 290.00 L 412.43 290.00 C410.06,290.00 407.84,290.45 407.50,291.00 C407.16,291.55 406.01,292.00 404.94,292.00 C403.87,292.00 403.00,291.55 403.00,291.00 C403.00,290.57 400.49,290.25 396.15,290.10 ZM 352.97 618.42 C352.29,617.58 351.57,616.66 350.82,615.71 C353.72,619.16 355.75,620.82 357.00,620.73 C357.75,620.67 358.22,620.51 358.52,619.82 L 358.50 625.34 ZM 660.66 476.23 C658.15,477.83 657.37,476.81 658.62,473.55 C659.17,472.10 659.37,472.12 660.53,473.71 C661.51,475.04 661.54,475.67 660.66,476.23 ZM 351.66 500.32 C352.56,501.23 355.11,498.99 354.43,497.89 C353.58,496.51 351.00,496.84 351.00,498.33 C351.00,499.07 351.30,499.96 351.66,500.32 ZM 475.59 272.28 L 476.43 270.55 C477.51,268.35 478.78,266.35 480.23,264.56 C480.25,264.59 480.27,264.63 480.29,264.67 C480.99,265.79 477.47,272.00 476.13,272.00 C475.96,272.00 475.77,272.10 475.59,272.28 ZM 663.19 421.86 C663.31,423.51 663.77,424.64 664.21,424.37 C665.35,423.67 665.18,420.23 663.98,419.49 C663.35,419.10 663.05,420.02 663.19,421.86 ZM 643.42 311.79 C640.89,310.67 635.79,310.38 616.55,310.00 L 615.42 309.98 C616.97,309.99 618.58,310.00 620.25,310.00 C637.97,310.01 640.64,310.18 643.42,311.79 ZM 428.98 675.30 C423.80,673.19 420.00,671.39 420.00,670.83 C420.00,670.75 421.27,670.67 423.64,670.59 C423.19,670.79 423.00,671.04 423.00,671.37 C423.00,672.14 425.90,673.87 428.98,675.30 ZM 351.00 546.50 C351.00,547.33 350.55,548.00 350.00,548.00 C349.45,548.00 349.00,547.33 349.00,546.50 C349.00,545.67 349.45,545.00 350.00,545.00 C350.55,545.00 351.00,545.67 351.00,546.50 ZM 345.50 422.00 C345.84,422.55 346.32,423.00 346.56,423.00 C346.80,423.00 347.00,422.55 347.00,422.00 C347.00,421.45 346.52,421.00 345.94,421.00 C345.36,421.00 345.16,421.45 345.50,422.00 ZM 656.56 388.29 C656.94,389.28 657.50,389.83 657.81,389.53 C658.11,389.22 657.81,388.41 657.12,387.73 C656.14,386.75 656.02,386.87 656.56,388.29 ZM 493.49 288.98 C495.50,292.73 499.45,294.91 504.76,294.96 C505.02,294.96 505.26,294.96 505.49,294.96 C500.70,295.46 495.74,293.33 493.51,289.02 C493.50,289.01 493.50,288.99 493.49,288.98 ZM 492.87 277.63 C492.31,279.10 492.00,280.73 492.00,282.50 C492.00,284.28 492.26,285.90 492.77,287.34 C491.55,284.00 491.69,280.56 492.87,277.63 Z" fill="rgba(16,30,96,1)"/>
<path d="M 606.57 694.75 C607.59,696.54 608.80,698.00 609.25,698.00 C609.44,698.00 609.61,697.95 609.77,697.86 C609.81,698.00 609.87,698.15 609.93,698.31 C610.65,700.20 610.37,701.42 608.68,703.83 C606.36,707.11 598.88,710.00 579.75,715.01 C574.94,716.27 571.00,717.65 571.00,718.07 C571.00,718.36 570.38,718.74 569.46,719.08 C572.14,718.07 571.26,716.73 567.42,717.45 C539.48,722.69 503.10,722.13 474.50,716.01 C469.00,714.83 461.91,713.48 458.74,713.01 C458.68,713.00 458.63,712.99 458.57,712.98 C458.70,712.99 458.82,713.00 458.93,713.00 C460.34,712.99 455.42,710.94 448.00,708.44 C424.94,700.68 396.61,685.41 379.76,671.68 C376.61,669.10 373.63,667.00 373.14,667.00 L 373.14 667.00 C373.63,667.00 370.24,663.51 365.62,659.25 C360.99,654.99 355.19,649.25 352.74,646.50 C348.95,642.26 348.40,641.14 349.15,639.12 C349.39,638.48 349.59,638.02 349.63,637.55 C349.74,636.11 348.36,634.55 342.05,627.02 C334.68,618.21 327.94,608.07 322.07,597.07 C334.71,620.36 352.00,640.81 373.79,658.18 C403.39,681.78 438.55,696.99 476.13,702.45 C491.45,704.68 519.09,704.50 535.50,702.06 C556.79,698.89 578.03,692.50 594.07,684.46 L 600.63 681.16 L 600.20 684.08 C599.75,687.18 599.85,687.24 606.50,687.29 C608.66,687.31 610.03,687.91 610.36,688.83 C609.92,687.92 608.16,687.40 605.20,687.35 L 600.91 687.27 L 602.81 689.39 C603.86,690.55 605.55,692.96 606.57,694.75 ZM 616.67 673.25 C616.43,672.84 618.65,670.83 621.61,668.79 C628.42,664.11 628.88,665.68 622.56,672.05 C620.61,674.01 617.50,674.65 616.67,673.25 ZM 344.92 714.58 C330.82,702.83 315.39,687.46 305.58,675.15 C314.70,686.29 332.27,703.86 344.92,714.58 ZM 296.25 526.61 C297.41,528.01 298.50,529.53 298.52,529.98 C298.52,530.26 298.83,530.96 299.19,531.53 C299.54,532.08 301.00,537.74 302.44,544.15 C300.99,537.71 299.30,531.86 298.66,531.10 C298.02,530.32 297.56,529.42 297.63,529.10 C297.70,528.73 297.06,527.67 296.25,526.61 ZM 610.57 696.66 C610.84,695.66 610.69,694.34 609.99,693.49 C609.87,693.34 609.76,693.20 609.67,693.06 C609.72,693.12 609.78,693.18 609.84,693.24 C611.02,694.42 611.31,696.49 610.57,696.66 ZM 351.48 719.84 C354.56,722.13 357.42,724.21 359.53,725.69 C359.21,725.48 358.86,725.25 358.48,724.99 C356.10,723.35 353.58,721.49 350.98,719.47 C351.15,719.59 351.31,719.72 351.48,719.84 ZM 364.90 723.25 C365.52,724.87 365.55,725.79 364.94,726.56 C365.31,725.66 365.35,724.45 364.90,723.25 ZM 451.84 711.63 C449.19,710.97 446.88,710.23 445.48,709.57 C446.89,710.19 449.35,710.97 451.84,711.63 Z" fill="rgba(13,99,175,1)"/>
<path d="M 502.19 770.75 C502.91,770.51 502.55,769.96 501.78,768.79 C500.97,767.57 498.87,766.21 497.12,765.75 C494.22,765.00 493.93,764.57 494.01,761.21 C494.06,759.17 494.05,751.45 494.00,744.06 L 493.91 730.62 L 497.70 726.86 L 501.50 723.11 L 515.00 722.20 L 528.50 721.29 L 517.96 721.15 C505.37,720.97 488.22,718.94 474.50,716.01 C503.10,722.13 539.48,722.69 567.42,717.45 C571.87,716.61 572.34,718.55 567.93,719.52 C566.12,719.91 565.05,720.69 565.32,721.40 C566.06,723.31 563.37,728.73 561.08,729.96 C559.64,730.73 559.00,732.06 558.98,734.29 C558.98,736.05 558.59,738.11 558.12,738.85 C557.60,739.66 557.95,742.02 559.02,744.85 C559.98,747.41 561.09,751.53 561.49,754.00 C561.91,756.62 563.22,759.58 564.64,761.10 L 567.08 763.69 L 559.29 765.35 C543.63,768.69 521.60,770.67 502.19,770.75 ZM 563.02 529.49 C563.58,529.14 563.74,528.38 563.37,527.80 C562.92,527.07 564.11,526.94 567.11,527.38 C571.94,528.10 583.49,528.19 591.93,527.57 C596.90,527.20 597.52,526.88 599.14,523.83 C600.88,520.56 600.92,520.94 600.94,545.00 C600.94,547.86 600.94,550.39 600.93,552.65 C600.85,547.87 600.56,548.31 599.37,550.70 C598.08,553.32 597.04,554.02 593.65,554.51 C587.21,555.45 567.82,555.50 564.75,554.59 L 562.00 553.77 C562.01,538.77 562.38,529.88 563.02,529.49 ZM 305.33 445.59 C307.02,439.69 309.18,433.07 310.42,429.99 C312.45,425.00 313.12,423.39 312.74,423.09 C312.56,422.95 312.12,423.12 311.47,423.37 C309.33,424.19 307.04,421.16 304.31,413.91 C301.16,405.52 300.50,398.59 302.34,393.00 C306.85,379.24 311.53,368.61 317.26,359.15 C317.70,358.42 318.03,357.81 318.26,357.33 C318.20,358.08 317.93,359.20 317.48,360.68 C315.33,367.76 315.53,368.48 321.00,373.60 L 326.00 378.27 L 326.00 387.72 C326.00,397.08 325.96,397.25 321.13,406.44 C314.60,418.89 309.06,432.62 305.33,445.59 ZM 497.53 473.50 C508.14,462.92 517.51,450.88 524.23,439.19 L 529.07 430.78 L 525.52 426.99 L 526.62 421.48 C527.62,416.53 527.55,415.13 526.21,412.32 C524.39,408.49 522.35,408.15 518.65,411.06 L 516.38 412.85 C515.35,410.05 514.67,407.13 514.36,404.16 C514.01,400.77 513.98,398.00 514.31,398.00 C514.64,398.00 516.04,398.52 517.42,399.15 C519.33,400.01 520.28,400.01 521.35,399.12 C522.52,398.15 522.89,398.76 523.47,402.72 C525.58,416.94 535.11,426.45 549.25,428.45 C550.41,428.62 551.30,428.77 551.98,428.95 C551.19,429.31 550.45,430.41 550.39,432.11 C550.26,435.78 548.53,437.15 544.74,436.58 C543.21,436.35 541.36,436.78 540.61,437.54 C539.85,438.29 539.07,438.74 538.87,438.53 C538.67,438.33 538.72,441.75 539.00,446.13 C539.28,450.57 539.08,454.52 538.55,455.05 C538.03,455.57 534.15,456.00 529.94,456.00 C521.75,456.00 520.11,456.79 512.79,464.25 C511.13,465.94 509.02,467.00 507.30,467.01 C505.18,467.01 502.54,468.89 496.42,474.76 L 492.35 478.66 ZM 548.00 572.74 L 536.25 573.38 C525.51,573.97 517.17,573.33 511.21,571.46 C510.08,571.11 509.51,570.93 509.25,571.98 L 509.23 570.33 L 508.96 551.16 L 518.23 551.43 C523.33,551.59 532.11,551.78 537.75,551.85 L 548.00 552.00 L 548.00 571.44 C548.00,571.88 548.00,572.31 548.00,572.74 ZM 740.83 413.91 C741.98,415.14 743.20,416.48 744.45,417.90 L 754.16 428.88 L 754.69 436.69 C754.98,440.98 755.16,444.95 755.07,445.50 C754.41,449.90 753.92,471.75 754.42,474.42 C754.89,476.92 755.82,478.10 758.06,479.02 C761.32,480.38 761.22,481.20 757.73,481.69 C756.97,481.80 755.64,481.92 753.96,482.04 C757.44,481.38 757.17,481.34 751.27,480.87 C747.85,480.60 744.77,480.10 744.43,479.77 C742.67,478.00 742.02,469.13 742.07,447.26 C742.11,433.93 742.51,421.71 742.97,420.10 C743.60,417.91 743.41,416.94 740.83,413.91 ZM 457.15 598.04 C456.06,595.87 455.85,591.32 455.77,582.47 C455.65,569.03 456.06,566.66 458.14,568.74 C458.75,569.35 459.86,569.61 460.62,569.31 C461.38,569.02 463.78,569.50 465.96,570.37 C471.71,572.67 478.94,573.05 486.62,571.44 C490.33,570.66 493.45,570.13 493.55,570.26 C493.66,570.39 493.97,577.79 494.24,586.69 C494.33,589.59 494.39,591.99 494.42,593.98 C494.39,593.41 494.36,592.81 494.32,592.18 C493.97,586.54 493.43,582.09 493.10,582.27 C486.05,586.20 481.76,587.41 473.50,587.78 C465.11,588.16 464.24,588.01 460.71,585.59 C458.62,584.17 456.71,583.00 456.46,583.00 C455.37,583.00 456.02,595.09 457.15,598.04 ZM 441.00 605.00 C441.00,601.70 440.80,599.00 440.56,599.00 C440.31,599.00 438.61,599.89 436.76,600.98 C433.70,602.79 432.64,602.87 424.52,601.95 C413.88,600.74 407.30,599.25 404.25,597.35 C402.67,596.37 402.20,596.11 402.06,597.81 C401.84,592.60 401.86,587.00 402.35,587.00 C402.54,587.00 404.15,587.73 405.94,588.62 C411.02,591.16 432.26,590.23 437.31,587.24 L 441.00 585.07 L 441.00 605.00 ZM 578.41 386.75 C577.50,384.96 576.07,382.71 575.22,381.75 C573.84,380.17 573.86,379.81 575.40,378.11 C576.35,377.06 578.25,375.99 579.63,375.73 C581.67,375.34 582.54,375.92 584.35,378.88 C584.98,379.90 585.69,381.15 586.31,382.31 L 582.81 384.10 C580.37,385.34 579.07,386.61 578.99,387.78 C578.79,387.47 578.60,387.13 578.41,386.75 ZM 759.72 526.77 C761.00,518.52 761.86,509.28 761.74,504.77 C762.20,509.80 761.99,520.04 761.09,521.76 C760.75,522.40 760.22,524.38 759.72,526.77 ZM 321.74 351.80 C323.50,350.04 325.23,348.89 325.58,349.25 C326.31,349.97 321.06,354.92 319.52,354.97 C318.98,354.99 319.98,353.56 321.74,351.80 ZM 537.68 435.40 C537.33,436.29 537.73,436.72 538.77,436.56 C539.66,436.43 540.57,435.80 540.78,435.16 C541.34,433.49 538.32,433.72 537.68,435.40 ZM 481.61 769.98 C475.66,769.44 466.00,767.98 457.64,766.48 C466.06,767.98 475.76,769.42 481.61,769.91 C484.63,770.15 488.16,770.40 491.25,770.58 C487.86,770.45 484.63,770.25 481.61,769.98 ZM 731.94 482.89 C731.94,482.87 731.93,482.69 731.93,482.37 C732.48,482.65 734.60,482.83 737.35,482.89 C734.19,482.99 731.96,483.01 731.94,482.89 ZM 317.47 356.32 C315.86,357.44 312.68,360.62 308.60,365.39 C313.43,359.75 316.22,356.81 317.47,356.32 ZM 478.19 598.45 C475.52,597.95 472.39,598.13 467.11,598.86 C472.06,598.02 475.24,597.84 478.19,598.45 ZM 731.49 438.26 C731.45,429.74 731.50,423.42 731.65,418.79 C731.52,423.48 731.49,429.83 731.49,438.26 ZM 729.87 603.00 C730.38,603.00 733.20,598.03 736.42,591.80 C733.19,598.12 730.43,603.00 729.87,603.00 ZM 491.20 603.89 C490.03,603.81 488.50,603.05 484.83,601.09 C487.67,602.60 489.73,603.59 491.20,603.89 ZM 748.53 565.03 C750.06,560.90 751.65,556.43 753.08,552.16 C751.69,556.37 750.15,560.74 748.53,565.03 ZM 586.18 388.96 C584.66,389.64 583.43,389.97 582.40,389.95 C583.54,389.87 584.88,389.54 586.18,388.96 ZM 732.81 408.28 C733.04,407.70 733.31,407.39 733.62,407.29 C733.68,407.27 733.77,407.30 733.90,407.36 C733.82,407.36 733.74,407.37 733.66,407.39 C733.33,407.47 733.04,407.76 732.81,408.28 ZM 506.81 481.55 C504.88,482.13 502.45,482.25 497.70,482.34 L 488.50 482.50 L 488.50 482.50 L 497.62 482.34 C502.42,482.25 504.87,482.13 506.81,481.55 ZM 761.07 502.00 C760.21,502.02 759.72,502.39 759.29,504.23 C759.72,502.37 760.21,502.00 761.06,502.00 C761.06,502.00 761.07,502.00 761.07,502.00 ZM 553.99 431.25 C553.99,431.27 553.99,431.29 553.99,431.31 C553.97,432.94 553.65,434.14 551.68,437.35 C553.66,434.13 553.97,432.92 553.99,431.25 ZM 599.03 573.75 C599.24,573.27 599.44,572.80 599.61,572.31 C599.44,572.80 599.25,573.27 599.03,573.75 Z" fill="rgba(12,174,208,1)"/>
<path d="M 537.00 320.83 C529.58,320.46 506.85,320.32 486.50,320.52 C445.12,320.92 438.09,320.34 434.64,316.18 C433.46,314.77 431.49,312.55 430.25,311.26 C427.13,308.00 426.97,297.02 430.00,293.77 C431.33,292.34 432.00,290.24 432.00,287.47 C432.00,284.76 432.61,282.78 433.75,281.78 C435.98,279.84 443.42,278.22 453.00,277.60 C470.26,276.48 474.24,275.79 474.75,273.85 C475.02,272.83 475.64,272.00 476.13,272.00 C477.47,272.00 480.99,265.79 480.29,264.67 C479.96,264.13 480.14,263.97 480.69,264.31 C481.24,264.65 483.00,263.55 484.60,261.88 C489.48,256.74 492.10,255.83 498.02,257.19 C501.80,258.07 504.53,258.10 508.33,257.31 C511.17,256.72 515.08,256.48 517.00,256.77 C520.38,257.27 527.56,261.77 526.57,262.77 C525.88,263.46 528.76,270.08 530.67,272.19 C531.55,273.16 532.66,273.71 533.13,273.42 C533.61,273.12 534.00,273.58 534.00,274.44 C534.00,275.75 535.65,276.00 544.44,276.00 C550.18,276.00 555.13,276.40 555.43,276.89 C555.73,277.38 557.45,278.01 559.24,278.30 C568.94,279.84 574.20,282.60 575.83,287.00 C579.62,297.28 581.40,312.28 579.23,315.64 C577.85,317.78 570.76,320.00 565.13,320.06 C562.03,320.09 557.47,320.43 555.00,320.81 C552.53,321.19 544.42,321.20 537.00,320.83 ZM 350.10 614.83 C346.05,609.82 345.29,608.26 345.69,605.74 C345.95,604.06 345.63,601.67 344.96,600.43 C344.30,599.20 343.98,596.45 344.26,594.34 C344.57,591.97 343.98,588.03 342.73,584.05 C340.83,578.03 340.78,576.79 341.90,565.55 C342.91,555.39 343.09,547.55 342.79,527.00 C342.77,525.62 342.77,505.83 342.79,483.00 C342.81,460.17 342.78,440.38 342.72,439.00 C342.66,437.62 342.72,432.90 342.84,428.50 C343.06,420.56 343.08,420.52 344.93,422.73 C347.66,426.01 348.83,423.77 348.46,416.00 C348.28,412.42 348.07,409.50 347.98,409.50 C347.89,409.50 347.69,407.92 347.54,406.00 C347.16,401.08 347.22,401.21 344.90,400.47 C342.82,399.81 342.80,399.44 343.11,376.65 C343.28,363.92 343.58,352.99 343.78,352.36 C343.97,351.73 345.00,351.45 346.07,351.73 C347.98,352.23 351.00,350.53 351.00,348.95 C351.00,348.50 349.68,348.52 348.08,348.98 C344.69,349.95 344.00,349.52 344.00,346.44 C344.00,344.41 344.31,344.28 347.51,345.00 C349.47,345.44 351.26,345.40 351.57,344.89 C352.32,343.67 349.84,337.00 348.63,337.00 C348.10,337.00 347.95,336.72 348.30,336.37 C349.37,335.29 347.05,332.04 345.60,332.60 C343.93,333.24 341.96,323.29 342.74,318.17 C343.18,315.33 343.57,314.93 345.47,315.40 C348.67,316.21 350.50,312.03 348.90,307.59 C347.95,304.97 348.04,303.83 349.40,301.20 C350.78,298.53 351.63,298.00 354.53,298.00 C356.44,298.00 358.00,298.42 358.00,298.93 C358.00,299.44 360.25,299.78 362.99,299.68 C365.74,299.58 367.99,299.16 367.99,298.75 C368.00,298.34 368.90,298.00 370.00,298.00 C371.15,298.00 372.00,297.33 372.00,296.43 C372.00,294.60 374.34,292.00 375.99,292.00 C376.61,292.00 376.84,291.55 376.50,291.00 C376.10,290.35 380.66,290.00 389.44,290.00 C397.81,290.00 403.00,290.38 403.00,291.00 C403.00,291.55 403.87,292.00 404.94,292.00 C406.01,292.00 407.16,291.55 407.50,291.00 C407.84,290.45 410.06,290.00 412.43,290.00 L 416.74 290.00 L 417.44 298.98 C417.83,303.91 417.86,308.41 417.51,308.98 C417.12,309.62 409.87,309.99 398.19,309.98 C387.60,309.98 380.08,309.60 380.84,309.12 C384.08,307.07 380.49,304.63 375.57,305.55 C372.00,306.22 371.56,308.46 374.84,309.33 C375.75,309.57 374.31,309.82 371.63,309.88 C367.38,309.99 366.27,310.49 362.88,313.88 C360.75,316.02 359.00,317.51 359.00,317.21 C359.00,316.90 357.94,317.65 356.65,318.86 C354.45,320.93 354.31,321.70 354.57,330.77 C354.76,337.38 354.47,340.72 353.67,341.24 C352.78,341.82 352.80,342.19 353.73,342.80 C354.67,343.41 354.95,353.47 354.92,385.75 C354.89,426.59 354.82,427.92 352.94,428.52 C351.87,428.86 351.00,429.64 351.00,430.27 C351.00,431.07 351.35,431.05 352.20,430.20 C354.24,428.16 354.53,428.80 354.25,434.75 C354.10,437.91 354.04,441.17 354.12,442.00 C354.28,443.65 354.23,460.33 354.05,469.00 C353.98,472.02 354.07,478.62 354.24,483.65 C354.53,492.15 354.42,492.77 352.68,492.44 C351.64,492.24 350.17,491.55 349.40,490.92 C348.63,490.28 347.96,489.92 347.91,490.13 C347.86,490.33 347.62,493.28 347.38,496.67 C346.89,503.63 347.84,504.99 351.51,502.59 C352.84,501.71 354.11,501.00 354.33,501.00 C355.24,501.00 354.91,511.94 353.99,512.50 C353.45,512.84 353.00,512.65 353.00,512.07 C353.00,511.49 352.10,511.79 351.00,512.73 C348.73,514.68 348.40,516.63 350.25,517.25 C351.23,517.58 351.20,518.04 350.13,519.33 C348.58,521.22 347.81,531.76 349.17,532.60 C349.66,532.91 349.77,534.72 349.41,536.63 C348.78,540.00 348.85,540.10 351.63,539.81 C354.34,539.52 354.51,539.72 354.64,543.50 C354.72,545.70 354.92,551.10 355.08,555.50 C355.24,559.90 354.92,564.40 354.37,565.50 C353.82,566.60 353.45,568.51 353.55,569.75 C353.65,570.99 353.34,572.00 352.86,572.00 C352.39,572.00 352.00,572.67 352.00,573.50 C352.00,574.33 351.65,575.00 351.21,575.00 C350.78,575.00 350.35,575.79 350.26,576.75 C349.80,581.32 348.69,584.93 347.89,584.43 C347.40,584.13 347.00,584.61 347.00,585.50 C347.00,586.39 347.48,586.82 348.07,586.46 C348.77,586.02 349.02,587.11 348.82,589.65 C348.61,592.16 348.01,593.50 347.08,593.50 C346.30,593.50 345.55,594.07 345.41,594.78 C345.27,595.48 345.39,595.57 345.67,594.98 C346.03,594.25 346.65,594.29 347.64,595.12 C348.79,596.07 349.65,595.89 351.87,594.25 L 354.67 592.19 L 355.83 595.41 C356.47,597.19 357.00,599.60 357.00,600.76 C357.00,601.93 357.45,603.16 358.00,603.50 C358.55,603.84 359.00,607.82 359.00,612.35 C359.00,619.86 358.83,620.59 357.00,620.73 C355.65,620.83 353.38,618.88 350.10,614.83 ZM 491.47 689.05 C492.17,687.91 489.67,686.49 485.34,685.56 C482.69,684.99 482.07,685.22 481.52,686.94 C480.74,689.38 478.16,689.72 478.36,687.36 C478.56,685.04 476.54,684.61 474.60,686.55 C473.08,688.06 472.20,688.02 462.73,685.99 C451.48,683.58 449.00,682.60 449.00,680.57 C449.00,677.74 439.37,675.42 436.08,677.45 C434.66,678.33 423.00,672.91 423.00,671.37 C423.00,670.32 424.98,670.00 431.56,670.00 C437.01,670.00 439.89,670.36 439.50,671.00 C439.16,671.55 439.58,672.00 440.44,672.00 C441.30,672.00 442.00,672.45 442.00,673.00 C442.00,674.90 454.24,674.15 457.72,672.03 C460.80,670.15 463.00,670.07 507.97,670.06 C533.84,670.06 555.00,670.38 555.00,670.78 C555.00,671.45 558.00,672.93 562.23,674.35 C563.60,674.80 563.83,675.62 563.33,678.21 C562.97,680.02 562.28,681.77 561.79,682.09 C560.06,683.24 536.93,688.26 536.30,687.64 C535.95,687.29 536.75,686.97 538.08,686.93 C540.33,686.86 540.36,686.80 538.50,686.00 C537.40,685.53 535.15,685.12 533.50,685.09 C531.21,685.04 530.85,685.26 532.00,686.00 C532.83,686.53 533.05,686.98 532.50,687.00 C531.95,687.02 532.17,687.47 533.00,688.00 C534.18,688.76 533.93,688.97 531.86,688.98 C530.40,688.99 528.95,688.33 528.64,687.50 C528.30,686.62 526.80,686.00 525.03,686.00 C522.32,686.00 521.50,686.84 521.88,689.25 C521.95,689.66 515.00,690.00 506.44,690.00 C496.87,690.00 491.11,689.63 491.47,689.05 ZM 661.56 579.50 C660.42,576.77 659.53,576.00 657.49,576.00 C655.77,576.00 655.13,576.39 655.60,577.15 C656.05,577.89 655.87,578.04 655.09,577.55 C654.42,577.14 654.12,576.54 654.44,576.23 C654.75,575.92 654.36,574.67 653.56,573.46 C651.35,570.08 650.92,553.10 652.82,544.17 C654.05,538.41 654.13,536.44 653.19,534.94 C651.74,532.61 651.66,531.67 653.00,532.50 C653.57,532.85 654.00,531.99 654.00,530.50 C654.00,529.01 653.57,528.15 653.00,528.50 C651.88,529.19 651.77,528.57 651.84,521.50 C651.89,515.91 651.89,514.12 652.22,514.06 C652.39,514.03 652.63,514.43 653.00,515.00 C653.84,516.30 653.97,516.27 653.98,514.83 C653.99,513.92 653.51,513.00 652.90,512.80 C652.29,512.60 651.80,510.76 651.80,508.71 C651.80,506.67 651.45,504.78 651.01,504.51 C649.88,503.81 649.70,425.00 650.83,425.00 C651.34,425.00 652.01,423.68 652.34,422.06 C652.77,419.88 653.46,419.16 654.96,419.27 C657.33,419.45 658.71,422.69 657.10,424.30 C656.49,424.91 656.01,425.87 656.02,426.45 C656.02,427.03 656.47,426.83 657.00,426.00 C657.70,424.91 658.01,425.87 658.10,429.50 C658.18,432.25 658.13,434.95 658.00,435.50 C656.61,441.44 656.41,461.48 657.75,460.66 C658.16,460.40 658.60,461.55 658.72,463.21 C658.97,466.67 660.52,468.87 663.52,470.01 C666.56,471.16 668.25,477.69 667.42,485.05 C667.04,488.35 666.35,491.29 665.87,491.58 C665.39,491.88 665.00,493.22 665.00,494.56 C665.00,495.90 664.53,497.00 663.96,497.00 C663.27,497.00 663.28,497.66 664.01,499.02 C664.77,500.44 664.79,502.68 664.08,506.53 C663.52,509.54 663.31,512.79 663.61,513.75 C664.12,515.41 664.09,515.41 663.03,513.75 C662.41,512.79 661.14,511.99 660.20,511.97 C658.79,511.94 658.88,511.62 660.75,510.06 C663.12,508.08 663.73,506.00 661.94,506.00 C661.36,506.00 661.16,505.55 661.50,505.00 C661.84,504.45 661.66,504.00 661.09,504.00 C659.88,504.00 658.53,506.43 657.62,510.26 C657.15,512.22 657.33,512.94 658.23,512.76 C658.93,512.61 659.32,513.17 659.09,514.00 C658.24,517.10 658.54,520.47 659.67,520.49 C660.31,520.49 661.17,520.84 661.58,521.25 C662.00,521.66 661.79,522.00 661.12,522.00 C659.59,522.00 656.51,524.97 655.69,527.25 C655.35,528.21 655.49,529.00 656.01,529.00 C656.59,529.00 656.60,529.92 656.03,531.41 C655.35,533.22 655.47,533.97 656.54,534.38 C657.36,534.69 657.71,535.60 657.36,536.51 C657.00,537.45 657.52,538.68 658.62,539.52 C660.26,540.75 660.29,540.94 658.84,540.97 C657.67,540.99 657.34,541.60 657.72,543.05 C658.58,546.31 661.42,544.96 662.08,540.99 C663.04,535.20 663.92,539.39 665.26,556.00 C666.76,574.72 666.52,583.00 664.46,583.00 C663.67,583.00 662.37,581.42 661.56,579.50 ZM 650.00 322.02 C650.00,318.61 647.15,314.06 643.70,311.96 C640.81,310.19 638.57,310.01 620.25,310.00 C609.08,310.00 600.11,309.61 600.25,309.12 C600.39,308.64 599.26,307.08 597.75,305.67 C595.92,303.96 594.96,301.99 594.87,299.80 L 594.74 296.50 L 593.26 303.50 L 592.97 299.50 C592.69,295.69 592.64,295.76 592.00,301.00 L 591.33 306.50 L 591.16 301.42 C591.03,297.29 591.43,295.95 593.31,294.17 C595.30,292.31 596.84,291.99 604.06,291.93 C609.71,291.88 611.84,291.57 610.50,291.00 C609.21,290.44 612.22,290.12 619.05,290.07 C624.85,290.03 630.03,290.42 630.55,290.93 C631.07,291.44 635.02,292.09 639.33,292.38 C643.64,292.66 647.75,293.38 648.47,293.98 C649.20,294.58 651.24,295.25 653.02,295.48 C658.05,296.11 662.07,300.87 662.45,306.64 C662.74,310.87 662.33,311.97 658.77,316.68 C656.57,319.60 654.41,321.75 653.97,321.48 C653.52,321.21 652.45,321.69 651.58,322.56 C650.14,324.00 650.00,323.96 650.00,322.02 ZM 512.35 292.00 C514.23,290.35 516.25,289.00 516.85,289.00 C518.74,289.00 519.94,285.41 519.33,281.62 C518.46,276.26 510.20,270.00 504.02,270.00 C494.63,270.00 488.97,280.25 493.51,289.02 C496.89,295.56 506.56,297.08 512.35,292.00 ZM 651.65 614.17 C650.38,612.77 650.00,610.34 650.00,603.73 C650.00,598.99 650.45,594.84 651.00,594.50 C651.55,594.16 652.00,593.06 652.00,592.05 C652.00,589.35 654.80,588.63 655.19,591.22 C655.37,592.46 657.14,594.25 659.48,595.55 C665.22,598.76 665.69,599.96 663.71,606.24 C662.59,609.82 661.03,612.34 659.05,613.80 C655.43,616.48 653.82,616.56 651.65,614.17 ZM 653.65 417.17 C651.62,414.92 651.60,414.26 653.50,412.35 C654.84,411.01 654.84,410.61 653.50,408.70 C651.50,405.84 651.60,402.01 653.71,400.47 C655.16,399.41 655.22,398.97 654.09,397.61 C653.36,396.72 652.14,396.00 651.38,396.00 C650.62,396.00 650.00,395.10 650.00,394.00 C650.00,392.90 650.45,392.00 651.00,392.00 C651.55,392.00 652.00,390.85 652.00,389.44 C652.00,387.99 652.43,387.15 653.00,387.50 C653.55,387.84 654.01,387.53 654.03,386.81 C654.05,385.87 654.31,385.92 654.93,387.00 C655.41,387.83 655.72,390.64 655.63,393.25 C655.54,395.86 655.70,398.00 655.98,398.00 C656.59,398.00 656.23,412.55 655.56,415.50 C655.11,417.47 655.12,417.47 656.55,415.56 C657.71,414.01 658.00,413.93 658.00,415.19 C658.00,416.05 657.39,417.26 656.65,417.87 C655.63,418.72 654.91,418.55 653.65,417.17 ZM 661.97 482.31 C661.99,480.55 661.60,478.87 661.11,478.57 C659.35,477.48 658.14,480.61 658.70,484.78 C659.21,488.57 659.41,488.83 660.60,487.26 C661.34,486.29 661.95,484.06 661.97,482.31 ZM 351.73 468.98 C351.60,467.32 351.15,465.97 350.74,465.98 C350.33,465.99 349.10,466.00 348.00,466.00 C346.90,466.00 346.00,466.49 346.00,467.09 C346.00,467.70 346.90,468.42 348.00,468.71 C349.10,469.00 350.00,469.86 350.00,470.62 C350.00,471.38 350.44,472.00 350.99,472.00 C351.53,472.00 351.87,470.64 351.73,468.98 ZM 352.38 487.20 C353.68,485.09 348.94,482.46 347.12,484.28 C345.56,485.84 345.72,487.04 347.40,486.40 C348.17,486.11 349.09,486.34 349.46,486.93 C350.24,488.19 351.68,488.33 352.38,487.20 ZM 662.25 498.52 C661.72,495.73 660.99,495.41 659.21,497.19 C658.30,498.10 658.40,498.78 659.65,500.16 C661.73,502.46 662.86,501.74 662.25,498.52 ZM 662.93 434.31 C662.88,433.86 662.66,432.46 662.42,431.18 C662.19,429.91 662.61,428.25 663.36,427.50 C664.52,426.34 664.73,426.74 664.73,430.09 C664.73,432.27 664.34,434.29 663.86,434.58 C663.39,434.88 662.97,434.75 662.93,434.31 ZM 583.50 673.00 C583.16,672.45 583.39,672.00 584.00,672.00 C584.61,672.00 584.84,671.55 584.50,671.00 C584.14,670.42 585.16,670.00 586.94,670.00 C590.77,670.00 590.79,670.54 587.06,672.47 C585.20,673.43 583.89,673.62 583.50,673.00 ZM 662.72 524.72 C662.46,524.03 662.58,521.67 663.00,519.48 C663.78,515.46 663.97,515.79 664.41,521.80 C664.66,525.17 663.60,527.00 662.72,524.72 ZM 660.66 476.23 C661.54,475.67 661.51,475.04 660.53,473.71 C659.37,472.12 659.17,472.10 658.62,473.55 C657.37,476.81 658.15,477.83 660.66,476.23 ZM 351.66 500.32 C351.30,499.96 351.00,499.07 351.00,498.33 C351.00,496.84 353.58,496.51 354.43,497.89 C355.11,498.99 352.56,501.23 351.66,500.32 ZM 663.19 421.86 C663.05,420.02 663.35,419.10 663.98,419.49 C665.18,420.23 665.35,423.67 664.21,424.37 C663.77,424.64 663.31,423.51 663.19,421.86 ZM 351.00 546.50 C351.00,545.67 350.55,545.00 350.00,545.00 C349.45,545.00 349.00,545.67 349.00,546.50 C349.00,547.33 349.45,548.00 350.00,548.00 C350.55,548.00 351.00,547.33 351.00,546.50 ZM 345.50 422.00 C345.16,421.45 345.36,421.00 345.94,421.00 C346.52,421.00 347.00,421.45 347.00,422.00 C347.00,422.55 346.80,423.00 346.56,423.00 C346.32,423.00 345.84,422.55 345.50,422.00 ZM 656.56 388.29 C656.02,386.87 656.14,386.75 657.12,387.73 C657.81,388.41 658.11,389.22 657.81,389.53 C657.50,389.83 656.94,389.28 656.56,388.29 Z" fill="rgba(18,34,101,1)"/>
<path d="M 351.48 719.84 C345.02,715.04 335.61,706.55 326.58,697.66 C326.62,697.68 326.65,697.68 326.67,697.67 C327.09,697.24 325.70,693.87 323.54,690.10 C322.51,688.30 322.44,687.26 323.27,685.93 C324.09,684.63 324.06,681.78 323.19,675.22 C321.78,664.65 321.62,648.35 322.91,647.56 C323.41,647.25 323.83,643.96 323.85,640.25 C323.95,619.27 323.97,619.00 325.42,619.00 C326.20,619.00 333.02,625.75 340.57,634.00 C348.12,642.25 354.54,649.00 354.85,649.00 C354.93,649.00 354.89,648.88 354.75,648.65 C357.64,651.66 361.99,655.91 365.62,659.25 C370.24,663.51 373.63,667.00 373.14,667.00 C372.65,667.00 371.63,666.26 370.87,665.35 C368.63,662.64 359.20,656.00 357.60,656.00 C356.31,656.00 356.31,656.57 357.68,660.57 C358.54,663.09 360.31,666.22 361.62,667.53 C364.02,669.93 365.05,674.76 362.87,673.42 C362.06,672.92 361.91,673.71 362.35,676.11 C364.70,688.92 364.92,691.52 363.72,692.50 C363.05,693.05 362.41,694.89 362.30,696.59 C362.19,698.29 362.03,700.09 361.93,700.59 C361.84,701.09 361.82,702.85 361.90,704.50 C362.00,706.77 362.26,707.14 362.96,706.03 C363.75,704.78 364.00,704.84 364.60,706.41 C365.00,707.43 364.79,709.10 364.16,710.12 C362.76,712.36 362.64,716.66 363.96,717.47 C364.48,717.80 364.69,718.65 364.42,719.36 C364.14,720.07 364.35,721.80 364.89,723.20 C365.78,725.55 364.84,728.00 363.03,728.00 C362.72,728.00 357.52,724.33 351.48,719.84 ZM 705.23 488.61 C706.59,488.29 707.21,487.97 707.37,487.49 C707.57,486.91 707.05,486.08 706.34,484.73 C704.34,480.89 703.98,460.09 705.80,453.50 C707.21,448.43 708.30,432.52 707.43,429.77 C706.94,428.23 703.82,434.60 695.40,454.37 C690.07,466.87 685.37,478.22 683.89,482.14 C685.37,478.21 690.07,466.82 695.41,454.28 C701.67,439.55 708.20,424.12 709.92,420.00 C711.79,415.52 714.12,411.73 715.69,410.58 C717.14,409.52 717.95,409.27 717.48,410.03 C716.26,412.01 716.01,417.93 715.68,452.00 C715.52,468.77 715.06,483.49 714.65,484.69 C714.05,486.45 712.44,487.30 705.23,488.61 ZM 562.12 619.51 C562.04,617.88 562.00,615.96 562.00,613.95 C562.00,608.43 561.95,605.23 563.51,603.36 C565.69,600.74 571.04,600.75 584.13,600.64 L 601.00 600.50 L 601.00 625.00 L 600.94 616.75 C600.89,611.06 600.60,609.17 600.01,610.65 C599.53,611.83 598.55,613.17 597.82,613.63 C597.09,614.08 588.85,614.47 579.50,614.48 L 562.50 614.50 L 562.18 618.36 C562.15,618.74 562.13,619.13 562.12,619.51 ZM 286.82 446.78 C284.22,472.32 288.14,524.21 292.95,525.82 C293.74,526.08 294.00,525.80 293.58,525.13 C293.20,524.51 293.18,524.00 293.55,524.00 C294.37,524.00 297.80,528.28 297.63,529.10 C297.56,529.42 298.02,530.32 298.66,531.10 C299.31,531.87 301.03,537.83 302.49,544.35 C306.38,561.73 312.67,578.88 320.70,594.45 C316.42,586.39 312.78,578.32 310.34,571.25 C307.56,563.16 306.00,560.95 306.00,565.07 C306.00,568.64 302.68,566.86 300.28,562.00 C295.79,552.93 289.12,529.02 286.47,512.46 C284.43,499.78 283.23,462.00 284.86,462.00 C285.53,462.00 286.00,460.25 286.00,457.72 C286.00,454.69 286.28,450.99 286.82,446.78 ZM 509.18 621.80 C509.07,620.56 509.00,619.01 509.00,617.38 L 509.00 611.09 L 512.25 610.53 C514.04,610.22 522.83,609.86 531.79,609.73 L 548.08 609.48 L 547.79 616.99 L 547.65 620.71 C547.36,620.22 546.78,619.96 545.81,619.83 C541.83,619.26 510.20,620.46 509.46,621.21 C509.32,621.34 509.23,621.55 509.18,621.80 ZM 455.94 516.25 L 452.25 515.66 C450.05,515.30 447.70,514.35 447.03,513.53 C445.96,512.25 444.36,512.77 435.15,517.40 C433.14,518.40 430.78,519.55 428.33,520.70 C437.76,516.22 447.80,510.92 455.05,506.51 C463.30,501.50 467.32,500.20 476.52,499.59 C478.72,499.44 481.51,498.80 482.70,498.16 C483.89,497.52 486.58,497.00 488.67,497.00 L 492.46 497.00 L 488.89 499.43 C481.66,504.34 468.89,510.77 455.94,516.25 ZM 494.98 619.90 C494.89,618.24 494.49,617.99 493.25,618.47 C492.29,618.84 486.99,619.98 481.48,621.00 C471.03,622.92 466.92,622.63 459.25,619.40 C456.81,618.37 456.20,618.17 456.05,619.19 C456.02,618.74 456.00,618.28 456.00,617.82 L 456.00 613.03 L 475.50 613.27 L 495.00 613.50 L 495.00 618.64 C495.00,619.09 494.99,619.51 494.98,619.90 ZM 403.20 623.80 C401.63,622.23 401.66,619.05 403.25,618.83 C403.94,618.73 412.71,618.62 422.75,618.58 L 441.00 618.50 L 441.00 621.14 C441.00,622.63 440.31,624.05 439.42,624.39 C436.31,625.59 404.47,625.07 403.20,623.80 ZM 576.97 414.36 C579.37,410.43 580.98,406.01 580.99,402.75 C581.00,398.33 583.80,395.00 587.50,395.00 C589.91,395.00 590.00,395.24 590.00,401.46 C590.00,402.18 589.98,402.89 589.94,403.59 C589.80,402.30 589.35,402.06 588.25,402.39 C587.29,402.67 585.36,403.18 583.97,403.51 C582.02,403.97 581.01,405.29 579.62,409.19 C579.03,410.87 578.11,412.63 576.97,414.36 ZM 545.16 411.70 C543.73,409.97 548.19,405.03 551.29,404.92 C552.51,404.87 554.53,404.72 555.80,404.58 C557.82,404.36 557.58,404.85 553.84,408.66 C549.46,413.13 547.05,413.97 545.16,411.70 ZM 606.57 694.75 C605.55,692.96 603.86,690.55 602.81,689.39 L 600.91 687.27 L 605.20 687.35 C609.83,687.43 611.52,688.66 609.82,690.72 C609.06,691.63 609.11,692.42 609.99,693.49 C611.24,694.99 610.74,698.00 609.25,698.00 C608.80,698.00 607.59,696.54 606.57,694.75 ZM 556.00 432.63 C556.00,428.90 556.34,428.00 557.75,427.98 C558.67,427.97 559.94,427.63 561.38,427.06 C560.12,427.86 560.10,428.62 560.44,430.38 C560.75,431.96 561.00,433.87 561.00,434.62 C561.00,435.73 561.91,436.08 563.37,435.85 C562.28,436.17 561.19,436.43 560.13,436.60 L 556.00 437.26 ZM 363.61 700.17 C362.71,698.73 363.77,695.00 365.07,695.00 C366.16,695.00 366.17,696.71 365.10,699.43 C364.58,700.77 364.12,701.00 363.61,700.17 ZM 361.00 689.06 C361.00,688.54 360.55,687.84 360.00,687.50 C359.45,687.16 359.00,687.58 359.00,688.44 C359.00,689.30 359.45,690.00 360.00,690.00 C360.55,690.00 361.00,689.58 361.00,689.06 ZM 547.55 623.27 L 547.50 624.50 L 528.94 624.77 C528.34,624.78 527.74,624.79 527.15,624.79 C527.66,624.79 528.19,624.78 528.73,624.77 C543.91,624.55 546.82,624.48 547.55,623.27 ZM 421.57 527.98 C427.68,526.31 434.67,524.21 440.78,522.16 C438.91,522.83 437.09,523.44 435.33,524.01 C431.03,525.38 426.13,526.78 421.57,527.98 ZM 587.63 414.08 C586.08,417.83 583.73,421.34 580.49,424.83 C577.99,427.54 575.10,429.91 572.07,431.82 C575.03,429.90 578.07,427.45 580.49,424.83 C583.44,421.65 585.94,417.82 587.63,414.08 ZM 292.16 419.76 C290.79,425.47 289.31,432.19 288.26,437.60 C289.17,432.62 290.33,427.22 291.71,421.57 C291.87,420.95 292.02,420.35 292.16,419.76 ZM 562.67 624.33 C562.60,624.27 562.54,624.07 562.48,623.75 C562.81,624.22 563.88,624.52 566.44,624.71 C564.20,624.61 562.81,624.47 562.67,624.33 ZM 509.69 624.35 C509.60,624.26 509.51,624.02 509.43,623.65 C509.72,624.14 510.40,624.46 512.21,624.65 C510.71,624.57 509.80,624.47 509.69,624.35 ZM 294.48 416.67 C295.31,412.70 295.86,408.98 295.78,407.95 C296.09,407.89 295.73,410.66 294.48,416.67 ZM 307.08 676.95 C305.38,674.94 303.91,673.11 302.73,671.50 C299.09,666.55 295.26,661.38 294.21,660.00 C295.26,661.38 298.99,666.39 302.50,671.14 C303.71,672.77 305.31,674.79 307.08,676.95 ZM 564.51 425.62 C566.21,424.73 567.95,423.67 569.51,422.54 C567.84,423.87 566.13,424.94 564.51,425.62 ZM 350.25 643.55 C348.64,641.65 348.50,640.72 349.12,639.12 C349.37,638.47 349.58,638.01 349.62,637.54 C349.64,637.28 349.62,637.02 349.52,636.71 C349.62,637.02 349.65,637.29 349.63,637.55 C349.59,638.02 349.39,638.48 349.15,639.12 C348.62,640.56 348.74,641.55 350.25,643.55 ZM 493.42 624.39 C493.73,624.27 494.00,624.04 494.23,623.72 C494.02,624.05 493.75,624.27 493.42,624.39 Z" fill="rgba(20,119,203,1)"/>
<path d="M 481.61 769.91 C470.48,768.99 445.41,764.60 441.74,762.93 C437.59,761.04 434.79,754.58 436.45,750.75 C436.87,749.79 436.86,748.21 436.43,747.25 C436.01,746.29 435.57,740.33 435.46,734.00 C435.35,727.67 434.73,720.03 434.08,717.00 C432.77,710.94 432.48,707.19 433.25,706.41 C433.84,705.82 443.03,707.95 444.50,709.01 C446.25,710.29 452.80,712.12 458.74,713.01 C461.91,713.48 469.00,714.83 474.50,716.01 C488.22,718.94 505.37,720.97 517.96,721.15 L 528.50 721.29 L 515.00 722.20 L 501.50 723.11 L 497.70 726.86 L 493.91 730.62 L 494.00 744.06 C494.05,751.45 494.06,759.17 494.01,761.21 C493.93,764.57 494.22,765.00 497.12,765.75 C498.87,766.21 500.97,767.57 501.78,768.79 C503.24,770.99 503.22,771.00 497.37,770.86 C494.14,770.78 487.05,770.35 481.61,769.91 ZM 562.00 566.38 L 562.00 553.77 L 564.75 554.59 C567.82,555.50 587.21,555.45 593.65,554.51 C597.04,554.02 598.08,553.32 599.37,550.70 C600.91,547.58 600.95,547.79 600.96,558.50 C600.96,567.23 600.56,570.38 599.03,573.75 L 597.10 578.00 L 588.30 577.92 C583.46,577.87 576.80,577.49 573.50,577.06 C569.06,576.50 566.99,576.65 565.53,577.65 C564.44,578.39 563.21,579.00 562.78,579.00 C562.35,579.00 562.00,573.32 562.00,566.38 ZM 731.79 482.25 C731.61,481.84 731.47,465.21 731.48,445.30 C731.50,417.20 731.46,407.96 733.66,407.39 C734.77,407.10 736.45,409.02 739.00,411.84 C743.30,416.60 743.72,417.48 742.97,420.10 C742.51,421.71 742.11,433.93 742.07,447.26 C742.02,469.13 742.67,478.00 744.43,479.77 C744.77,480.10 747.85,480.60 751.27,480.87 C757.42,481.36 757.45,481.38 753.50,482.13 C748.25,483.12 732.21,483.21 731.79,482.25 ZM 290.29 427.62 C292.35,417.75 294.75,408.72 296.51,405.33 C297.32,403.77 297.99,402.04 297.99,401.48 C298.01,398.98 305.00,382.92 311.12,370.58 C307.99,377.17 305.13,384.48 302.34,393.00 C300.50,398.59 301.16,405.52 304.31,413.91 C307.04,421.16 309.33,424.19 311.47,423.37 C312.12,423.12 312.56,422.95 312.74,423.09 C313.12,423.39 312.45,425.00 310.42,429.99 C309.01,433.48 306.42,441.56 304.67,447.94 C302.93,454.32 300.54,460.86 299.37,462.46 L 297.25 465.38 L 295.76 462.44 C294.94,460.82 293.96,457.07 293.58,454.11 C293.20,451.15 292.28,446.95 291.54,444.78 C290.09,440.58 290.69,434.88 294.48,416.67 C297.36,402.86 295.51,406.15 291.71,421.57 C291.21,423.63 290.73,425.65 290.29,427.62 ZM 528.00 591.84 C525.53,591.30 520.35,590.55 516.50,590.18 L 509.50 589.50 L 509.21 580.12 C508.92,570.76 508.92,570.75 511.21,571.46 C517.17,573.33 525.51,573.97 536.25,573.38 L 548.00 572.74 L 548.00 581.81 C548.00,586.80 547.66,591.08 547.25,591.33 C545.47,592.38 532.12,592.74 528.00,591.84 ZM 496.42 474.76 C502.54,468.89 505.18,467.01 507.30,467.01 C509.02,467.00 511.13,465.94 512.79,464.25 C520.11,456.79 521.75,456.00 529.94,456.00 C534.15,456.00 538.03,455.57 538.55,455.05 C539.08,454.52 539.28,450.57 539.00,446.13 C538.72,441.75 538.67,438.33 538.87,438.53 C539.07,438.74 539.85,438.29 540.61,437.54 C541.36,436.78 543.21,436.35 544.74,436.58 C548.53,437.15 550.26,435.78 550.39,432.11 C550.52,428.33 554.01,427.50 553.99,431.25 C553.97,433.97 553.16,435.45 545.64,446.42 C537.93,457.66 532.39,463.86 529.38,464.62 C527.85,465.00 526.40,466.49 525.54,468.56 C524.61,470.79 522.73,472.60 519.83,474.08 C517.45,475.29 513.56,477.60 511.20,479.22 C507.26,481.92 506.11,482.18 497.62,482.34 L 488.34 482.50 ZM 484.66 601.00 C478.45,597.68 475.12,597.38 465.24,599.20 C459.26,600.30 458.65,600.24 457.38,598.50 C456.11,596.77 455.29,583.00 456.46,583.00 C456.71,583.00 458.62,584.17 460.71,585.59 C464.24,588.01 465.11,588.16 473.50,587.78 C481.76,587.41 486.05,586.20 493.10,582.27 C493.43,582.09 493.97,586.54 494.32,592.18 C495.13,605.47 494.35,606.17 484.66,601.00 ZM 430.00 609.90 C426.03,608.89 420.54,608.23 410.78,607.59 C407.08,607.35 403.59,606.87 403.03,606.52 C402.46,606.17 402.00,603.65 402.00,600.92 C402.00,596.02 402.03,595.97 404.25,597.35 C407.30,599.25 413.88,600.74 424.52,601.95 C432.64,602.87 433.70,602.79 436.76,600.98 C438.61,599.89 440.31,599.00 440.56,599.00 C440.80,599.00 441.00,601.70 441.00,605.00 L 441.00 611.00 L 437.25 610.90 C435.19,610.84 431.92,610.39 430.00,609.90 ZM 736.64 587.30 C743.40,573.16 747.31,563.26 753.08,545.66 C754.91,540.10 755.80,534.31 758.09,513.07 C759.16,503.16 759.48,502.00 761.14,502.00 C762.93,502.00 760.51,526.42 757.62,537.50 C755.63,545.13 750.17,561.18 746.05,571.50 C742.31,580.86 730.94,603.00 729.87,603.00 C729.47,603.00 732.52,595.94 736.64,587.30 ZM 522.68 424.03 C521.15,422.22 519.03,419.02 517.96,416.93 L 516.02 413.13 L 518.65 411.06 C522.35,408.15 524.39,408.49 526.21,412.32 C527.55,415.13 527.62,416.53 526.62,421.48 L 525.45 427.33 ZM 555.44 397.90 C554.57,396.49 564.48,387.00 566.82,387.00 C568.82,387.00 571.00,388.83 571.00,390.50 C571.00,391.11 569.48,393.27 567.62,395.30 C564.78,398.40 563.57,399.00 560.17,399.00 C557.94,399.00 555.81,398.51 555.44,397.90 ZM 536.75 403.46 C534.47,400.42 534.53,398.32 536.94,397.03 C539.70,395.55 544.57,399.74 542.72,402.00 C539.78,405.61 538.58,405.91 536.75,403.46 ZM 579.67 389.33 C578.12,387.79 579.24,385.92 582.81,384.10 L 586.62 382.15 L 587.68 384.97 C588.63,387.49 588.49,387.91 586.33,388.90 C583.60,390.14 580.66,390.33 579.67,389.33 ZM 537.68 435.40 C538.32,433.72 541.34,433.49 540.78,435.16 C540.57,435.80 539.66,436.43 538.77,436.56 C537.73,436.72 537.33,436.29 537.68,435.40 ZM 315.44 362.26 C316.09,361.08 316.69,360.04 317.24,359.15 C318.08,357.77 318.53,356.84 318.63,356.34 C318.53,356.84 318.10,357.77 317.26,359.15 C316.64,360.17 316.04,361.21 315.44,362.26 Z" fill="rgba(13,158,207,1)"/>
<path d="M 317.58 688.91 C312.80,683.89 306.01,675.89 302.50,671.14 C298.99,666.39 295.26,661.38 294.21,660.00 C293.13,658.58 291.12,655.45 288.80,651.65 C291.42,655.91 293.43,659.00 293.62,659.00 C294.30,659.00 293.29,654.78 291.69,651.00 C290.82,648.92 290.33,645.17 290.49,641.74 C290.64,638.57 290.37,635.73 289.88,635.43 C289.40,635.13 289.00,633.50 289.00,631.81 C289.00,629.72 288.12,627.93 286.25,626.25 C284.74,624.88 284.01,624.04 284.64,624.38 C286.16,625.18 287.15,621.02 286.38,617.14 C285.66,613.55 290.02,582.00 291.23,582.00 C291.69,582.00 292.39,582.88 292.79,583.96 C293.45,585.74 293.73,585.61 295.84,582.53 C297.12,580.67 298.32,578.10 298.51,576.82 C298.70,575.54 299.17,573.49 299.54,572.26 C300.20,570.13 300.08,570.08 297.03,571.14 C295.28,571.75 293.60,572.87 293.32,573.62 C291.89,577.33 291.28,572.78 291.58,560.77 C291.82,551.62 291.49,545.95 290.54,542.50 C288.51,535.13 285.26,517.72 284.11,508.00 C282.02,490.30 281.86,483.95 283.01,464.68 C284.38,441.76 286.65,429.88 294.47,404.58 C298.19,392.55 305.96,375.51 308.05,374.82 C308.68,374.61 309.39,371.98 309.64,368.97 L 310.07 363.70 C317.09,355.72 320.89,353.19 317.24,359.15 C311.26,368.91 298.01,398.04 297.99,401.48 C297.99,402.04 297.32,403.77 296.51,405.33 C292.71,412.62 286.00,446.05 286.00,457.72 C286.00,460.25 285.53,462.00 284.86,462.00 C283.23,462.00 284.43,499.78 286.47,512.46 C289.12,529.02 295.79,552.93 300.28,562.00 C302.68,566.86 306.00,568.64 306.00,565.07 C306.00,560.95 307.56,563.16 310.34,571.25 C314.55,583.48 322.37,598.68 330.87,611.72 C330.84,611.68 330.82,611.64 330.79,611.59 C327.50,606.59 324.29,602.50 323.66,602.50 C321.61,602.50 321.78,607.91 323.94,611.40 C325.08,613.25 328.15,616.72 330.76,619.11 C333.37,621.50 336.62,625.10 338.00,627.11 C339.38,629.11 342.27,633.12 344.43,636.00 C347.71,640.37 348.30,641.01 348.94,639.64 C348.44,641.32 349.04,642.37 351.80,645.25 C353.78,647.31 355.16,649.00 354.85,649.00 C354.54,649.00 348.12,642.25 340.57,634.00 C333.02,625.75 326.20,619.00 325.42,619.00 C323.97,619.00 323.95,619.27 323.85,640.25 C323.83,643.96 323.41,647.25 322.91,647.56 C321.62,648.35 321.78,664.65 323.19,675.22 C324.06,681.78 324.09,684.63 323.27,685.93 C322.44,687.26 322.51,688.30 323.54,690.10 C325.70,693.87 327.09,697.24 326.67,697.67 C326.45,697.88 322.36,693.94 317.58,688.91 ZM 685.45 488.54 C687.86,490.95 688.53,491.12 693.29,490.47 C700.08,489.56 700.26,489.40 698.50,485.99 C697.67,484.40 697.00,482.09 697.00,480.86 C697.00,479.63 696.46,476.00 695.80,472.79 C694.31,465.60 695.45,459.28 699.97,449.72 C701.77,445.90 703.00,441.86 702.82,440.31 C702.62,438.62 700.78,441.96 696.08,452.77 C703.99,434.26 706.95,428.27 707.43,429.77 C708.30,432.52 707.21,448.43 705.80,453.50 C703.98,460.09 704.34,480.89 706.34,484.73 C707.05,486.08 707.57,486.91 707.37,487.49 C707.03,488.52 704.51,488.83 697.00,489.98 C691.24,490.87 689.27,491.18 687.79,490.47 C687.03,490.11 686.40,489.49 685.45,488.54 ZM 562.40 623.61 C562.11,622.84 562.01,620.48 562.18,618.36 L 562.50 614.50 L 579.50 614.48 C588.85,614.47 597.09,614.08 597.82,613.63 C598.55,613.17 599.53,611.83 600.01,610.65 C600.60,609.17 600.89,611.06 600.94,616.75 L 600.97 621.24 C600.87,620.05 600.47,620.26 598.78,621.44 C597.56,622.30 595.56,623.00 594.34,623.00 C593.12,623.00 591.84,623.45 591.50,624.00 C591.12,624.62 592.82,625.00 595.94,625.00 C600.21,625.00 600.89,624.88 600.99,623.12 L 601.00 625.00 L 581.97 625.00 C574.79,625.00 570.15,624.94 567.19,624.76 C567.79,624.61 568.26,624.39 568.44,624.10 C568.75,623.60 567.68,622.74 566.08,622.18 C563.84,621.40 563.03,621.47 562.65,622.48 C562.49,622.90 562.43,623.36 562.47,623.74 C562.44,623.70 562.42,623.65 562.40,623.61 ZM 561.00 434.62 C561.00,433.87 560.75,431.96 560.44,430.38 C559.92,427.73 560.23,427.36 564.37,425.68 C570.25,423.30 577.33,415.64 579.62,409.19 C581.01,405.29 582.02,403.97 583.97,403.51 C585.36,403.18 587.29,402.67 588.25,402.39 C589.65,401.97 590.00,402.48 590.00,404.90 C590.00,410.55 586.05,418.83 580.49,424.83 C580.45,424.88 580.40,424.93 580.35,424.99 L 577.50 425.61 C575.85,425.98 573.85,426.78 573.06,427.39 C571.98,428.22 571.79,428.20 572.32,427.32 C572.71,426.67 572.67,425.91 572.23,425.64 C571.78,425.37 571.38,426.68 571.33,428.57 C571.28,430.19 571.55,431.56 571.93,431.91 C566.29,435.56 561.00,437.29 561.00,434.62 ZM 406.00 531.03 C406.00,530.76 407.73,529.83 410.33,528.64 C410.12,528.86 410.00,529.12 410.00,529.41 C410.00,530.32 410.70,530.63 412.00,530.29 C413.10,530.00 414.00,529.37 414.00,528.88 C414.00,528.40 413.10,528.00 412.00,528.00 C411.90,528.00 411.81,528.00 411.71,528.01 C412.80,527.53 414.00,527.03 415.25,526.52 C420.34,524.45 429.29,520.34 435.15,517.40 C444.36,512.77 445.96,512.25 447.03,513.53 C447.70,514.35 450.05,515.30 452.25,515.66 L 456.23 516.29 L 450.37 518.68 C437.00,524.12 406.00,532.75 406.00,531.03 ZM 509.35 623.48 C509.02,622.62 509.07,621.60 509.46,621.21 C510.20,620.46 541.83,619.26 545.81,619.83 C547.54,620.07 548.04,620.70 547.81,622.33 C547.51,624.46 547.14,624.51 528.73,624.77 C512.45,625.01 509.87,624.84 509.35,623.48 ZM 457.20 623.80 C456.54,623.14 456.00,621.57 456.00,620.32 C456.00,618.13 456.13,618.09 459.25,619.40 C466.92,622.63 471.03,622.92 481.48,621.00 C486.99,619.98 492.29,618.84 493.25,618.47 C494.68,617.91 495.00,618.34 495.00,620.79 C495.00,622.60 494.37,624.03 493.42,624.39 C490.31,625.59 458.47,625.07 457.20,623.80 ZM 283.91 643.43 C281.05,638.50 278.33,633.63 276.76,630.50 C274.72,626.43 272.48,621.36 270.29,615.91 C274.19,625.23 278.72,634.37 283.91,643.43 ZM 254.47 559.20 C253.90,555.51 253.41,551.82 253.00,548.13 C248.92,511.08 253.12,473.77 265.49,439.40 C267.34,434.27 269.56,428.91 272.09,423.44 C254.71,462.16 248.17,504.49 253.00,548.13 C253.41,551.81 253.90,555.50 254.47,559.20 ZM 298.51 378.28 C300.65,375.32 302.81,372.48 304.98,369.78 C303.62,371.52 302.03,373.59 300.55,375.55 C299.86,376.46 299.18,377.37 298.51,378.28 ZM 343.92 629.25 C347.07,633.00 348.60,634.87 349.24,636.08 C348.60,634.88 347.07,633.01 343.92,629.25 ZM 683.49 483.25 C683.45,483.35 683.43,483.43 683.41,483.49 C683.41,483.49 683.42,483.48 683.42,483.48 C683.43,483.42 683.45,483.34 683.49,483.25 Z" fill="rgba(21,103,201,1)"/>
<path d="M 286.72 648.21 C270.53,621.25 260.30,593.76 255.12,563.22 C243.59,495.34 259.42,429.95 300.55,375.55 C303.48,371.67 306.82,367.38 307.98,366.00 L 310.08 363.50 L 309.64 368.97 C309.39,371.98 308.68,374.61 308.05,374.82 C305.96,375.51 298.19,392.55 294.47,404.58 C286.65,429.88 284.38,441.76 283.01,464.68 C281.86,483.95 282.02,490.30 284.11,508.00 C285.26,517.72 288.51,535.13 290.54,542.50 C291.49,545.95 291.82,551.62 291.58,560.77 C291.28,572.78 291.89,577.33 293.32,573.62 C293.60,572.87 295.28,571.75 297.03,571.14 C300.08,570.08 300.20,570.13 299.54,572.26 C299.17,573.49 298.70,575.54 298.51,576.82 C298.32,578.10 297.12,580.67 295.84,582.53 C293.73,585.61 293.45,585.74 292.79,583.96 C292.39,582.88 291.69,582.00 291.23,582.00 C290.02,582.00 285.66,613.55 286.38,617.14 C287.15,621.02 286.16,625.18 284.64,624.38 C284.01,624.04 284.74,624.88 286.25,626.25 C288.12,627.93 289.00,629.72 289.00,631.81 C289.00,633.50 289.40,635.13 289.88,635.43 C290.37,635.73 290.64,638.57 290.49,641.74 C290.33,645.17 290.82,648.92 291.69,651.00 C293.29,654.78 294.30,659.00 293.62,659.00 C293.38,659.00 290.28,654.15 286.72,648.21 ZM 344.43 636.00 C342.27,633.12 339.38,629.11 338.00,627.11 C336.62,625.10 333.37,621.50 330.76,619.11 C328.15,616.72 325.08,613.25 323.94,611.40 C321.78,607.91 321.61,602.50 323.66,602.50 C324.29,602.50 327.50,606.59 330.79,611.59 C334.07,616.60 339.18,623.58 342.13,627.10 C350.35,636.92 350.11,636.52 349.20,638.99 C348.41,641.12 348.14,640.94 344.43,636.00 ZM 562.74 624.40 C562.41,624.07 562.37,623.21 562.65,622.48 C563.03,621.47 563.84,621.40 566.08,622.18 C567.68,622.74 568.75,623.60 568.44,624.10 C567.82,625.11 563.66,625.33 562.74,624.40 ZM 591.50 624.00 C591.84,623.45 593.12,623.00 594.34,623.00 C595.56,623.00 597.56,622.30 598.78,621.44 C600.90,619.96 601.00,620.00 601.00,622.44 C601.00,624.85 600.70,625.00 595.94,625.00 C592.82,625.00 591.12,624.62 591.50,624.00 ZM 410.00 529.41 C410.00,528.63 410.90,528.00 412.00,528.00 C413.10,528.00 414.00,528.40 414.00,528.88 C414.00,529.37 413.10,530.00 412.00,530.29 C410.70,530.63 410.00,530.32 410.00,529.41 ZM 685.45 488.54 C683.50,486.59 682.97,485.27 683.41,483.49 C683.74,482.17 688.17,471.31 693.26,459.35 C700.07,443.33 702.58,438.32 702.82,440.31 C703.00,441.86 701.77,445.90 699.97,449.72 C695.45,459.28 694.31,465.60 695.80,472.79 C696.46,476.00 697.00,479.63 697.00,480.86 C697.00,482.09 697.67,484.40 698.50,485.99 C700.26,489.40 700.08,489.56 693.29,490.47 C688.53,491.12 687.86,490.95 685.45,488.54 ZM 571.33 428.57 C571.38,426.68 571.78,425.37 572.23,425.64 C572.67,425.91 572.71,426.67 572.32,427.32 C571.79,428.20 571.98,428.22 573.06,427.39 C573.85,426.78 575.85,425.98 577.50,425.61 L 580.50 424.95 L 576.76 428.48 C574.71,430.41 572.63,432.00 572.13,432.00 C571.64,432.00 571.28,430.46 571.33,428.57 Z" fill="rgba(22,91,195,1)"/>
</g>
</svg>